<svg width="360" height="386" viewBox="0 0 360 386" fill="none" xmlns="http://www.w3.org/2000/svg">
<path opacity="0.1" fill-rule="evenodd" clip-rule="evenodd" d="M20.3296 154.339H39.0064V188.718H101.264V154.339H119.947V188.718H182.205V154.339H200.882C200.882 247.686 200.882 274.417 200.882 367.758H57.0329V339.924H54.2338H48.6781H44.0503V367.758H20.335L20.3296 339.924H18.874H13.3131H7.347L6.96837 339.913L6.82974 339.908C6.68046 339.897 6.52592 339.881 6.38197 339.86L6.07802 339.812L6.00871 339.801L5.71551 339.742L5.64619 339.726C5.42759 339.673 5.21435 339.615 5.00642 339.54L4.87316 339.497L4.78253 339.465L4.68116 339.428L4.6439 339.412L4.52122 339.364L4.46785 339.343L4.35053 339.289L4.29196 339.263L4.23859 339.241L4.1107 339.178L4.05733 339.151L3.98265 339.108L3.90276 339.071L3.8227 339.028L3.70539 338.964L3.69481 338.954L3.55082 338.868L3.54545 338.863L3.46556 338.815L3.24687 338.671L3.16698 338.618L2.86304 338.4C2.75641 338.314 2.65516 338.229 2.54852 338.144L2.54315 338.138L2.50052 338.101C2.34057 337.963 2.18593 337.813 2.03664 337.659L2.0259 337.648L1.83406 337.435C1.72743 337.318 1.63142 337.195 1.53012 337.073L1.32755 336.795L1.18355 336.572L1.15166 336.524L0.986347 336.246L0.911663 336.119L0.869033 336.049L0.821034 335.959L0.692981 335.692L0.687774 335.682L0.559722 335.378L0.549146 335.362L0.501146 335.245L0.479831 335.186L0.442408 335.09L0.351779 334.829L0.325094 334.744L0.309149 334.696L0.277258 334.589L0.207943 334.344L0.149205 334.067L0.133259 333.982L0.111944 333.875L0.0958361 333.795L0.0852599 333.71L0.0798905 333.667C0.0532321 333.502 0.0319783 333.331 0.021315 333.166L0.0159456 333.113C0.00528221 332.948 0 332.783 0 332.612V332.127V282.853V278.281V277.753C0 275.978 0.639802 274.348 1.70081 273.074L1.80738 272.951C1.89269 272.85 1.97793 272.754 2.0739 272.664L2.15395 272.589L2.22864 272.514C2.37259 272.376 2.5218 272.243 2.67641 272.109L2.86841 271.955L3.13493 271.763L3.34287 271.619L3.42293 271.571L3.7695 271.363L4.03065 271.22L4.10533 271.188L4.19059 271.145L4.41985 271.044L4.68116 270.937L4.77179 270.905L4.86242 270.873L5.20899 270.761C5.88611 270.559 6.60061 270.447 7.33105 270.447H11.2498H16.8107H20.3137L20.3296 154.339ZM96.2793 89.6053H105.887C107.732 89.6053 109.241 91.1135 109.241 92.9575V103.579C109.241 105.422 107.732 106.931 105.887 106.931H96.2793C94.4292 106.931 92.9203 105.422 92.9203 103.579V92.9575C92.9203 91.1189 94.4292 89.6053 96.2793 89.6053ZM242.159 363.527L210.111 329.899V353.923L219.27 363.527H242.159ZM291.099 363.527H268.21L210.846 303.333H233.741L291.099 363.527ZM340.038 363.527L282.675 303.333H259.781L317.144 363.527H340.038ZM388.972 363.527H366.083L308.72 303.333H331.614L388.972 363.527ZM389.708 312.937L380.554 303.333H357.659L389.708 336.961V312.937ZM205.819 367.183H394V299.683H329.721V182.366L330.004 181.742L329.721 181.119V63.1831L330.004 62.5596L329.721 61.9361V52.1996H347.279H347.284L360.08 43.1932L347.284 34.1869H347.279H345.732L301.671 0.607521L300.877 0L299.864 0.00536694L272.806 0.0106526H272.486L272.246 0.0586298L257.211 2.97369H256.603V3.09095L96.2739 34.1922H91.2729L78.4769 43.1986L91.2729 52.205H97.1378V84.9583H105.023V52.205H256.603V299.693H205.824V367.183H205.819ZM265.922 299.677V52.1889H270.092V61.9254L269.809 62.5543L270.092 63.1831V181.113L269.809 181.742L270.092 182.371V299.688H265.922V299.677ZM256.603 34.1763H127.512L256.603 9.13429V34.1763ZM265.922 7.32766L273.131 5.93145L295.316 5.92608L282.589 34.1763H265.922V7.32766ZM294.602 117.6H276.053V76.4156L294.602 117.6ZM323.761 76.4156V117.6H305.217L323.761 76.4156ZM323.761 123.558V167.87L303.809 123.558H323.761ZM323.761 195.603V240.587H303.506L323.761 195.603ZM323.761 246.545V287.058L305.516 246.545H323.761ZM276.053 287.058V246.545H294.298L276.053 287.058ZM276.053 240.582V195.603L296.313 240.582H276.053ZM276.053 167.87V123.558H296.009L276.053 167.87ZM307.462 12.4864L335.927 34.1763H317.229L307.462 12.4864ZM277.668 178.774L299.912 129.388L322.15 178.774H277.668ZM322.134 184.737L299.912 234.086L277.69 184.737H322.134ZM277.663 297.977L299.912 248.576L322.161 297.977H277.663ZM318.818 52.1889L323.483 62.5489L299.912 114.898L276.335 62.5489L281.006 52.1889H318.818ZM110.584 110.07C114.284 111.86 118.022 113.576 120.576 119.838C122.767 125.215 122.341 131.541 119.472 136.55C113.063 147.752 97.9108 148.754 90.2119 141.666C85.0774 136.945 83.6326 129.537 85.7653 127.832C86.3678 127.347 87.8179 131.855 92.3019 134.28C96.29 136.438 102.437 137.238 107.561 132.825C112.999 127.032 111 119.113 105.173 116.651C104.149 116.219 101.179 115.084 99.3877 113.875C98.2894 113.134 97.6389 112.366 97.2977 111.588H105.882C107.636 111.599 109.262 111.029 110.584 110.07ZM289.115 34.1763L299.912 10.2001L310.703 34.1763H289.115ZM15.899 336.593H22.2224L12.9826 326.212H18.5382L27.7833 336.593H34.1067L24.8616 326.212H30.4225L39.6623 336.593H45.7031L36.4633 326.212H42.0188L51.264 336.593H57.5874L48.3422 326.212H53.9032L63.1483 336.593H69.4717L60.2319 326.212H65.7929L75.0327 336.593H81.2973L72.0575 326.212H77.6184L86.8582 336.593H93.1816L83.9365 326.212H89.4974L97.0951 334.744C97.4843 334.125 97.719 333.395 97.719 332.612V328.343L95.8261 326.217H97.719V282.853H93.2723L85.1841 273.767H78.8607L86.9489 282.853H81.3879L73.2998 273.767H67.0351L75.1233 282.853H69.5623L61.4742 273.767H55.1454L63.239 282.853H57.678L49.5899 273.767H43.2665L51.3546 282.853H45.7937L37.7056 273.767H31.6648L39.7583 282.853H34.1974L26.1039 273.767H19.7805L27.874 282.853H22.313L14.2249 273.767H7.90151L15.9897 282.853H10.4341L3.98802 275.616C3.59347 276.234 3.35882 276.97 3.35882 277.753V282.022L4.09459 282.853H3.35882V326.217H6.65922L15.899 336.593ZM3.35882 328.748V332.612C3.35882 334.797 5.15564 336.593 7.34163 336.593H10.3435L3.35882 328.748ZM97.7242 281.595V277.748C97.7242 275.563 95.9221 273.761 93.7361 273.761H90.745L97.7242 281.595ZM31.814 293.432C31.5314 293.533 31.2703 293.602 31.0463 293.639C30.8171 293.682 30.5504 293.703 30.2518 293.703C28.567 293.703 27.7192 292.712 27.7192 290.724C27.7192 289.723 27.9326 288.966 28.3484 288.46C28.7696 287.948 29.3669 287.692 30.1506 287.692C30.4545 287.692 30.7211 287.713 30.9344 287.756C31.153 287.799 31.4036 287.868 31.6915 287.964C31.7928 287.729 31.8781 287.495 31.9634 287.26C32.0433 287.031 32.0914 286.791 32.1074 286.546C31.7235 286.392 31.3662 286.29 31.0356 286.243C30.705 286.195 30.3478 286.168 29.9586 286.168C29.2975 286.168 28.711 286.28 28.1939 286.509C27.6767 286.738 27.2395 287.058 26.8876 287.463C26.5357 287.873 26.2638 288.358 26.0772 288.912C25.8906 289.472 25.7945 290.074 25.7945 290.724C25.7945 291.375 25.8853 291.977 26.0612 292.531C26.2425 293.085 26.5091 293.565 26.8609 293.97C27.2128 294.375 27.65 294.684 28.1726 294.908C28.6951 295.132 29.3028 295.244 29.9959 295.244C30.3851 295.244 30.7531 295.222 31.089 295.169C31.4249 295.121 31.8087 295.02 32.2299 294.865C32.1979 294.62 32.1447 294.38 32.0807 294.135C32.0114 293.895 31.9206 293.661 31.814 293.432ZM35.6048 286.317L32.8324 295.1C33.1256 295.148 33.4188 295.174 33.7227 295.174C33.9893 295.174 34.2666 295.153 34.5599 295.1L35.0664 293.341H37.9721L38.4626 295.1C38.7559 295.148 39.0545 295.174 39.3691 295.174C39.6837 295.174 40.0088 295.153 40.3447 295.1L37.5936 286.317C37.4123 286.296 37.2417 286.275 37.0817 286.264C36.9271 286.253 36.7672 286.248 36.6019 286.248C36.4153 286.248 36.25 286.253 36.09 286.264C35.9354 286.275 35.7754 286.29 35.6048 286.317ZM37.5616 291.86L36.5485 288.172L35.4875 291.86H37.5616ZM41.2831 286.317V291.252C41.2831 291.849 41.3364 292.392 41.4271 292.883C41.523 293.373 41.7043 293.794 41.9549 294.146C42.2108 294.492 42.5467 294.764 42.9679 294.956C43.3891 295.148 43.933 295.244 44.5835 295.244C45.2339 295.244 45.7723 295.148 46.1988 294.956C46.62 294.764 46.9613 294.492 47.2119 294.146C47.4678 293.794 47.6384 293.373 47.7397 292.883C47.841 292.392 47.8837 291.849 47.8837 291.252V286.317C47.7291 286.296 47.5798 286.28 47.4252 286.269C47.2812 286.258 47.1266 286.253 46.9826 286.253C46.844 286.253 46.7001 286.258 46.5562 286.269C46.4122 286.274 46.2522 286.29 46.0869 286.317V290.874C46.0869 291.369 46.071 291.796 46.0337 292.147C45.9964 292.499 45.9216 292.797 45.815 293.027C45.703 293.261 45.5484 293.432 45.3511 293.538C45.1592 293.65 44.9032 293.703 44.5887 293.703C44.2688 293.703 44.0129 293.65 43.8103 293.538C43.613 293.432 43.4585 293.261 43.3412 293.027C43.2345 292.792 43.1598 292.499 43.1225 292.147C43.0852 291.796 43.0693 291.369 43.0693 290.874V286.317C42.9147 286.296 42.7599 286.28 42.616 286.269C42.472 286.258 42.3228 286.253 42.1895 286.253C42.0349 286.253 41.8803 286.258 41.7364 286.269C41.5924 286.274 41.4377 286.29 41.2831 286.317ZM51.2427 287.831V295.1C51.4026 295.121 51.5679 295.137 51.7225 295.148C51.8825 295.153 52.0372 295.158 52.1705 295.158C52.3038 295.158 52.453 295.153 52.5969 295.137C52.7409 295.126 52.8902 295.11 53.0341 295.094V287.825H55.2201C55.2734 287.58 55.3 287.324 55.3 287.058C55.3 286.807 55.2734 286.557 55.2201 286.312H49.0513C49.0033 286.557 48.9766 286.807 48.9766 287.058C48.9766 287.324 49.0033 287.58 49.0513 287.825H51.2427V287.831ZM56.4624 286.317V295.1C56.761 295.148 57.0596 295.174 57.3635 295.174C57.6514 295.174 57.9446 295.153 58.2539 295.1V286.317C57.9446 286.269 57.646 286.248 57.3528 286.248C57.0542 286.242 56.7557 286.269 56.4624 286.317ZM63.5429 295.244C64.204 295.244 64.7798 295.132 65.2543 294.903C65.7341 294.679 66.1286 294.359 66.4432 293.959C66.7524 293.554 66.9818 293.08 67.1311 292.531C67.2804 291.982 67.3604 291.38 67.3604 290.73C67.3604 290.08 67.2804 289.472 67.1311 288.918C66.9818 288.364 66.7524 287.879 66.4432 287.468C66.1286 287.063 65.7341 286.743 65.2543 286.514C64.7744 286.29 64.204 286.173 63.5429 286.173C62.8871 286.173 62.3166 286.285 61.8367 286.514C61.3569 286.743 60.9624 287.063 60.6478 287.468C60.3386 287.879 60.1093 288.364 59.96 288.918C59.8107 289.477 59.7308 290.08 59.7308 290.73C59.7308 291.38 59.8107 291.982 59.96 292.531C60.1093 293.08 60.3386 293.554 60.6478 293.959C60.9624 294.364 61.3569 294.679 61.8367 294.903C62.3112 295.126 62.8871 295.244 63.5429 295.244ZM63.5429 293.751C64.8065 293.751 65.4355 292.744 65.4355 290.724C65.4355 289.717 65.2863 288.96 64.977 288.454C64.6731 287.948 64.1986 287.692 63.5535 287.692C62.2739 287.692 61.6342 288.705 61.6342 290.724C61.6342 292.744 62.274 293.751 63.5429 293.751ZM68.8372 286.317V295.1C69.0877 295.148 69.349 295.174 69.6209 295.174C69.8875 295.174 70.1541 295.153 70.4101 295.1V289.52L73.833 295.1C74.1049 295.148 74.3555 295.174 74.5847 295.174C74.7926 295.174 75.0325 295.153 75.2938 295.1V286.317C75.0539 286.269 74.8086 286.248 74.558 286.248C74.2861 286.248 74.0089 286.269 73.7157 286.317V291.913L70.3194 286.317C70.0529 286.269 69.8022 286.248 69.557 286.248C69.3277 286.242 69.0877 286.269 68.8372 286.317ZM13.0358 307.906C12.7479 308.007 12.492 308.071 12.2628 308.114C12.0335 308.156 11.7669 308.172 11.4736 308.172C9.78884 308.172 8.94123 307.181 8.94123 305.193C8.94123 304.191 9.14906 303.435 9.57027 302.928C9.98614 302.417 10.5887 302.161 11.3724 302.161C11.6763 302.161 11.9322 302.182 12.1508 302.225C12.3694 302.267 12.6254 302.331 12.9079 302.433C13.0092 302.198 13.0945 301.964 13.1798 301.729C13.2651 301.5 13.3078 301.26 13.3238 301.015C12.9453 300.861 12.5827 300.759 12.2574 300.711C11.9322 300.663 11.5643 300.637 11.1751 300.637C10.5139 300.637 9.93283 300.749 9.41032 300.978C8.89315 301.207 8.45598 301.527 8.10409 301.932C7.7522 302.342 7.48024 302.822 7.29363 303.376C7.10702 303.936 7.01117 304.538 7.01117 305.193C7.01117 305.843 7.10178 306.446 7.28305 307C7.459 307.554 7.72555 308.034 8.08277 308.433C8.42933 308.838 8.86654 309.153 9.39438 309.377C9.91688 309.6 10.5194 309.712 11.2125 309.712C11.6017 309.712 11.9749 309.691 12.3054 309.638C12.6413 309.59 13.0252 309.489 13.4517 309.334C13.4197 309.089 13.3664 308.849 13.2971 308.604C13.2278 308.369 13.1425 308.135 13.0358 307.906ZM17.9996 309.712C18.6554 309.712 19.2259 309.6 19.7058 309.371C20.191 309.147 20.5801 308.828 20.8947 308.428C21.2039 308.023 21.4332 307.549 21.5878 307C21.7318 306.446 21.8119 305.849 21.8119 305.198C21.8119 304.548 21.7318 303.941 21.5878 303.381C21.4332 302.827 21.2039 302.342 20.8947 301.937C20.5801 301.532 20.191 301.212 19.7058 300.983C19.2259 300.759 18.6554 300.642 17.9996 300.642C17.3385 300.642 16.7734 300.754 16.2882 300.983C15.8084 301.212 15.4138 301.532 15.1045 301.937C14.7899 302.347 14.5608 302.827 14.4115 303.381C14.2622 303.941 14.1823 304.543 14.1823 305.198C14.1823 305.849 14.2622 306.446 14.4115 307C14.5608 307.549 14.7899 308.023 15.1045 308.428C15.4138 308.828 15.8084 309.147 16.2882 309.371C16.7681 309.6 17.3385 309.712 17.9996 309.712ZM17.9996 308.226C19.2579 308.226 19.887 307.213 19.887 305.198C19.887 304.191 19.7378 303.435 19.4285 302.928C19.1246 302.422 18.6501 302.166 18.005 302.166C16.7307 302.166 16.0857 303.179 16.0857 305.198C16.0857 307.213 16.7307 308.226 17.9996 308.226ZM23.2887 300.786V309.563C23.5392 309.611 23.8058 309.638 24.0724 309.638C24.3443 309.638 24.6057 309.611 24.8669 309.563V303.983L28.2899 309.563C28.5564 309.611 28.807 309.638 29.0362 309.638C29.2442 309.638 29.4841 309.611 29.7453 309.563V300.786C29.5054 300.738 29.2655 300.711 29.0095 300.711C28.7429 300.711 28.4658 300.738 28.1672 300.786V306.376L24.7709 300.786C24.5097 300.738 24.2537 300.711 24.0085 300.711C23.7846 300.711 23.5392 300.738 23.2887 300.786ZM33.0509 305.502L33.7974 305.785C33.9414 305.838 34.0853 305.897 34.2239 305.961C34.3625 306.019 34.4852 306.094 34.5971 306.184C34.7091 306.275 34.7945 306.382 34.8638 306.515C34.9385 306.643 34.9704 306.808 34.9704 307.005C34.9704 307.394 34.8264 307.687 34.5332 307.879C34.2346 308.071 33.8348 308.167 33.323 308.167C32.9817 308.167 32.6618 308.13 32.3579 308.06C32.054 307.991 31.7341 307.89 31.3929 307.746C31.3023 308.007 31.2276 308.268 31.1583 308.519C31.0943 308.774 31.0463 309.025 31.025 309.259C31.233 309.339 31.4248 309.409 31.6114 309.467C31.798 309.526 31.9847 309.574 32.1767 309.606C32.3686 309.643 32.5711 309.67 32.779 309.686C32.9923 309.702 33.2323 309.707 33.5042 309.707C34.0534 309.707 34.5279 309.638 34.9491 309.499C35.365 309.361 35.7222 309.169 36.0048 308.924C36.2873 308.684 36.506 308.385 36.6553 308.044C36.8046 307.703 36.8792 307.325 36.8792 306.909C36.8792 306.509 36.8311 306.174 36.7352 305.902C36.6392 305.63 36.506 305.396 36.33 305.204C36.1541 305.012 35.9408 304.852 35.6849 304.724C35.4343 304.596 35.1516 304.468 34.8477 304.346L34.1119 304.063C33.9893 304.015 33.8667 303.962 33.7494 303.909C33.6268 303.856 33.5149 303.792 33.4136 303.712C33.3123 303.632 33.2377 303.541 33.1843 303.429C33.1204 303.323 33.0937 303.184 33.0937 303.019C33.0937 302.811 33.131 302.651 33.2057 302.523C33.2803 302.395 33.3708 302.299 33.4881 302.235C33.6001 302.172 33.7335 302.124 33.8721 302.102C34.0161 302.076 34.1546 302.065 34.2932 302.065C34.5225 302.065 34.7251 302.076 34.9011 302.092C35.0824 302.113 35.2423 302.14 35.3863 302.172C35.5249 302.204 35.6634 302.246 35.7861 302.294C35.914 302.342 36.042 302.395 36.1593 302.438C36.3726 301.98 36.5005 301.521 36.5485 301.047C36.154 300.909 35.7702 300.802 35.4076 300.733C35.0451 300.658 34.6505 300.621 34.24 300.621C33.7815 300.621 33.3708 300.674 33.0083 300.786C32.6404 300.898 32.3258 301.058 32.0646 301.276C31.8033 301.495 31.6008 301.756 31.4622 302.076C31.3183 302.395 31.2489 302.758 31.2489 303.179C31.2489 303.52 31.2916 303.813 31.3716 304.058C31.4622 304.303 31.5795 304.511 31.7341 304.687C31.8834 304.863 32.0752 305.017 32.2938 305.14C32.5284 305.278 32.7737 305.396 33.0509 305.502ZM39.8756 302.299V309.563C40.0409 309.59 40.2007 309.606 40.3607 309.611C40.5206 309.622 40.67 309.627 40.8086 309.627C40.9419 309.627 41.0911 309.622 41.2351 309.611C41.379 309.595 41.5283 309.584 41.6723 309.568V302.305H43.8583C43.9116 302.06 43.9329 301.804 43.9329 301.537C43.9329 301.282 43.9116 301.036 43.8583 300.791H37.6896C37.6416 301.031 37.6149 301.282 37.6149 301.537C37.6149 301.804 37.6416 302.06 37.6896 302.305L39.8756 302.299ZM45.1806 300.786V309.563C45.3406 309.59 45.5058 309.606 45.6551 309.611C45.8097 309.622 45.959 309.627 46.0976 309.627C46.2309 309.627 46.3801 309.622 46.5241 309.611C46.6681 309.595 46.8173 309.584 46.9613 309.568V302.156C47.1053 302.134 47.2759 302.118 47.4519 302.118C47.9157 302.118 48.2942 302.241 48.5874 302.475C48.886 302.715 49.03 303.093 49.03 303.605C49.03 303.866 48.9767 304.09 48.8701 304.282C48.7634 304.474 48.6355 304.634 48.4862 304.767C48.3423 304.9 48.1822 305.012 48.017 305.103C47.857 305.193 47.713 305.268 47.6011 305.326L47.3079 305.47L49.6058 309.552C49.9097 309.6 50.2136 309.627 50.5229 309.627C50.7095 309.627 50.8907 309.616 51.072 309.6C51.248 309.584 51.4186 309.568 51.5839 309.552L49.4513 305.838L49.6592 305.705C49.7872 305.62 49.9258 305.513 50.0697 305.38C50.2137 305.247 50.3576 305.087 50.4802 304.9C50.6029 304.714 50.7094 304.495 50.7948 304.245C50.8747 303.994 50.9121 303.706 50.9121 303.381C50.9121 302.832 50.8054 302.385 50.5922 302.033C50.3789 301.681 50.091 301.399 49.7445 301.191C49.3979 300.983 48.9981 300.839 48.5609 300.754C48.129 300.669 47.6864 300.631 47.2386 300.631C46.8547 300.631 46.5082 300.642 46.1936 300.674C45.8737 300.711 45.5432 300.749 45.1806 300.786ZM52.5117 300.786V305.715C52.5117 306.312 52.5595 306.856 52.6555 307.346C52.7515 307.836 52.9274 308.257 53.1833 308.609C53.4339 308.961 53.77 309.227 54.1912 309.419C54.6177 309.611 55.1561 309.707 55.8065 309.707C56.457 309.707 57.0009 309.611 57.4221 309.419C57.8433 309.227 58.1845 308.956 58.4351 308.609C58.6857 308.257 58.8616 307.836 58.9629 307.346C59.0589 306.856 59.1069 306.312 59.1069 305.715V300.786C58.9523 300.759 58.7977 300.743 58.6484 300.738C58.4991 300.733 58.3444 300.727 58.2005 300.727C58.0619 300.727 57.918 300.733 57.774 300.738C57.6301 300.743 57.4701 300.759 57.3101 300.786V305.342C57.3101 305.838 57.2887 306.264 57.2514 306.616C57.2141 306.968 57.1448 307.266 57.0329 307.495C56.9209 307.73 56.7663 307.9 56.5744 308.007C56.3824 308.119 56.1212 308.172 55.8013 308.172C55.4814 308.172 55.2254 308.119 55.0228 308.007C54.8255 307.9 54.671 307.73 54.559 307.495C54.4471 307.261 54.3776 306.968 54.335 306.616C54.303 306.264 54.2818 305.838 54.2818 305.342V300.786C54.1272 300.759 53.9724 300.743 53.8285 300.738C53.6845 300.733 53.5406 300.727 53.402 300.727C53.2474 300.727 53.0928 300.733 52.9489 300.738C52.8156 300.749 52.6663 300.759 52.5117 300.786ZM66.5605 307.906C66.2726 308.007 66.0167 308.071 65.7875 308.114C65.5582 308.156 65.2916 308.172 64.9983 308.172C63.3135 308.172 62.4659 307.181 62.4659 305.193C62.4659 304.191 62.6738 303.435 63.095 302.928C63.5108 302.417 64.1134 302.161 64.8971 302.161C65.201 302.161 65.4569 302.182 65.6755 302.225C65.8941 302.267 66.15 302.331 66.4326 302.433C66.5339 302.198 66.6192 301.964 66.7045 301.729C66.7898 301.5 66.8325 301.26 66.8485 301.015C66.47 300.861 66.1073 300.759 65.7821 300.711C65.4569 300.663 65.089 300.637 64.6998 300.637C64.0386 300.637 63.4575 300.749 62.935 300.978C62.4178 301.207 61.9807 301.527 61.6288 301.932C61.2769 302.342 61.0049 302.822 60.8183 303.376C60.6317 303.936 60.5359 304.538 60.5359 305.193C60.5359 305.843 60.6265 306.446 60.8077 307C60.9837 307.554 61.2502 308.034 61.6075 308.433C61.9594 308.838 62.3966 309.153 62.9191 309.377C63.4416 309.6 64.0441 309.712 64.7372 309.712C65.1317 309.712 65.4942 309.691 65.8301 309.638C66.166 309.59 66.5499 309.489 66.9764 309.334C66.9444 309.089 66.8911 308.849 66.8218 308.604C66.7525 308.369 66.6672 308.135 66.5605 307.906ZM70.0209 302.299V309.563C70.1808 309.59 70.3408 309.606 70.5061 309.611C70.6607 309.622 70.8152 309.627 70.9485 309.627C71.0871 309.627 71.2311 309.622 71.3751 309.611C71.5244 309.595 71.6737 309.584 71.8177 309.568V302.305H74.0035C74.0568 302.06 74.0782 301.804 74.0782 301.537C74.0782 301.282 74.0568 301.036 74.0035 300.791H67.8349C67.7815 301.031 67.7602 301.282 67.7602 301.537C67.7602 301.804 67.7815 302.06 67.8349 302.305L70.0209 302.299ZM75.2352 300.786V309.563C75.5391 309.611 75.8376 309.638 76.1415 309.638C76.4241 309.638 76.7228 309.611 77.032 309.563V300.786C76.7228 300.738 76.4241 300.711 76.1256 300.711C75.8323 300.711 75.5391 300.738 75.2352 300.786ZM82.3211 309.712C82.9822 309.712 83.5473 309.6 84.0325 309.371C84.5123 309.147 84.9069 308.828 85.2162 308.428C85.5307 308.023 85.7599 307.549 85.9091 307C86.0584 306.446 86.1332 305.849 86.1332 305.198C86.1332 304.548 86.0584 303.941 85.9091 303.381C85.7599 302.827 85.5307 302.342 85.2162 301.937C84.9069 301.532 84.5123 301.212 84.0325 300.983C83.5473 300.759 82.9822 300.642 82.3211 300.642C81.66 300.642 81.0947 300.754 80.6095 300.983C80.1297 301.212 79.7352 301.532 79.426 301.937C79.1167 302.347 78.8821 302.827 78.7328 303.381C78.5835 303.941 78.5088 304.543 78.5088 305.198C78.5088 305.849 78.5835 306.446 78.7328 307C78.8821 307.549 79.1167 308.023 79.426 308.428C79.7352 308.828 80.1297 309.147 80.6095 309.371C81.0947 309.6 81.66 309.712 82.3211 309.712ZM82.3211 308.226C83.5794 308.226 84.2137 307.213 84.2137 305.198C84.2137 304.191 84.0591 303.435 83.7552 302.928C83.446 302.422 82.9768 302.166 82.3316 302.166C81.0574 302.166 80.4175 303.179 80.4175 305.198C80.4175 307.213 81.0521 308.226 82.3211 308.226ZM87.6153 300.786V309.563C87.8712 309.611 88.1325 309.638 88.3937 309.638C88.6656 309.638 88.9323 309.611 89.1882 309.563V303.983L92.6112 309.563C92.8778 309.611 93.1283 309.638 93.3575 309.638C93.5708 309.638 93.8054 309.611 94.0666 309.563V300.786C93.832 300.738 93.5868 300.711 93.3308 300.711C93.0643 300.711 92.7818 300.738 92.4939 300.786V306.376L89.0922 300.786C88.831 300.738 88.5804 300.711 88.3352 300.711C88.1059 300.711 87.8659 300.738 87.6153 300.786ZM33.3762 315.255L35.4662 324.037C35.7594 324.085 36.0368 324.112 36.282 324.112C36.4633 324.112 36.6232 324.101 36.7778 324.091C36.9271 324.075 37.1031 324.059 37.3004 324.043L38.8146 318.191L40.222 324.043C40.5846 324.091 40.9258 324.117 41.2351 324.117C41.555 324.117 41.8589 324.096 42.1575 324.043L44.2688 315.26C44.1195 315.244 43.9703 315.228 43.8156 315.212C43.661 315.196 43.5011 315.191 43.3358 315.191C43.0639 315.191 42.808 315.212 42.552 315.265L41.2938 322.044L39.7209 315.265C39.433 315.217 39.1665 315.191 38.9265 315.191C38.7826 315.191 38.6385 315.196 38.4999 315.207C38.3613 315.217 38.2067 315.233 38.0468 315.26L36.5326 321.868L35.2743 315.26C35.1304 315.228 34.9811 315.207 34.8318 315.201C34.6825 315.196 34.5278 315.191 34.3838 315.191C34 315.18 33.6641 315.207 33.3762 315.255ZM48.6567 324.181C49.3179 324.181 49.8884 324.069 50.3683 323.84C50.8481 323.616 51.2426 323.296 51.5572 322.897C51.8664 322.492 52.0957 322.018 52.245 321.469C52.3943 320.914 52.469 320.318 52.469 319.667C52.469 319.012 52.3943 318.41 52.245 317.85C52.0957 317.291 51.8664 316.811 51.5572 316.406C51.2426 316.001 50.8481 315.681 50.3683 315.452C49.8884 315.223 49.3179 315.111 48.6567 315.111C47.9956 315.111 47.4306 315.223 46.9507 315.452C46.4655 315.676 46.0709 316.001 45.7616 316.406C45.4524 316.816 45.2233 317.296 45.0687 317.85C44.9247 318.41 44.8446 319.012 44.8446 319.667C44.8446 320.318 44.9247 320.914 45.0687 321.469C45.2233 322.018 45.4524 322.492 45.7616 322.897C46.0709 323.296 46.4655 323.616 46.9507 323.84C47.4252 324.069 47.9956 324.181 48.6567 324.181ZM48.6567 322.694C49.9203 322.694 50.5495 321.687 50.5495 319.667C50.5495 318.655 50.4003 317.898 50.091 317.392C49.7818 316.885 49.3126 316.635 48.6675 316.635C47.3879 316.635 46.748 317.642 46.748 319.667C46.748 321.682 47.3878 322.694 48.6567 322.694ZM54.0364 315.255V324.037C54.1964 324.064 54.3618 324.08 54.511 324.085C54.6657 324.091 54.8148 324.096 54.9534 324.096C55.0867 324.096 55.2361 324.091 55.3801 324.08C55.524 324.069 55.6733 324.053 55.8173 324.037V316.624C55.9666 316.598 56.1317 316.587 56.3077 316.587C56.7769 316.587 57.1502 316.71 57.4434 316.944C57.742 317.184 57.886 317.562 57.886 318.074C57.886 318.335 57.8327 318.559 57.726 318.751C57.6194 318.943 57.4966 319.102 57.342 319.236C57.1981 319.369 57.0382 319.481 56.8729 319.571C56.713 319.662 56.569 319.737 56.4571 319.79L56.1638 319.934L58.4618 324.016C58.7657 324.064 59.0696 324.091 59.3788 324.091C59.5654 324.091 59.7467 324.085 59.928 324.064C60.1039 324.048 60.2798 324.032 60.4451 324.016L58.3071 320.301L58.515 320.168C58.643 320.083 58.7817 319.976 58.9257 319.843C59.075 319.71 59.2136 319.545 59.3362 319.364C59.4588 319.177 59.5654 318.959 59.6507 318.708C59.7307 318.463 59.768 318.175 59.768 317.85C59.768 317.301 59.6614 316.853 59.4428 316.502C59.2295 316.15 58.9416 315.868 58.5951 315.66C58.2485 315.452 57.8485 315.308 57.4113 315.228C56.9795 315.148 56.537 315.106 56.0892 315.106C55.7053 315.106 55.3586 315.116 55.0441 315.148C54.7295 315.18 54.3936 315.212 54.0364 315.255ZM63.4523 319.619L66.0221 324.037C66.2141 324.069 66.39 324.091 66.5553 324.101C66.7099 324.107 66.8592 324.112 66.9871 324.112C67.1258 324.112 67.2856 324.101 67.4562 324.091C67.6322 324.075 67.8134 324.059 68.0054 324.043L65.3929 319.497L67.7976 315.26C67.611 315.244 67.4296 315.228 67.259 315.212C67.0884 315.196 66.9338 315.191 66.7951 315.191C66.6565 315.191 66.5126 315.196 66.3579 315.201C66.2033 315.212 66.0221 315.228 65.8355 315.26L63.4523 319.619ZM61.4101 315.244V324.048C61.5647 324.069 61.7195 324.091 61.8634 324.096C62.0074 324.101 62.1567 324.107 62.3006 324.107C62.4446 324.107 62.5991 324.101 62.743 324.096C62.887 324.091 63.0417 324.069 63.1963 324.048V315.244C63.0417 315.223 62.887 315.207 62.743 315.196C62.5991 315.191 62.4498 315.185 62.3166 315.185C62.1619 315.185 62.0074 315.191 61.8634 315.196C61.7195 315.201 61.57 315.217 61.4101 315.244ZM34.7891 370.886H66.2833V386H34.7891V370.886ZM153.302 279.538V317.738H170.032V279.538H153.302ZM149.516 317.738V279.538H149.026H131.815V317.738H149.026H149.516ZM182.205 207.381H119.947V258.371H182.205V207.381ZM39.0064 207.381V258.371H101.264V207.381H39.0064Z" fill="#AECF5A"/>
</svg>
