<svg width="30" height="30" viewBox="0 0 30 30" fill="none" xmlns="http://www.w3.org/2000/svg">
<rect width="30" height="30" rx="4" fill="#048372"/>
<path d="M14.6263 5.5534C14.5969 5.55343 14.5678 5.54767 14.5406 5.53644C14.5134 5.52521 14.4888 5.50873 14.468 5.48796C14.4472 5.46718 14.4307 5.4425 14.4194 5.41535C14.4081 5.38819 14.4023 5.35908 14.4023 5.32968V4.22396C14.4023 4.16456 14.4259 4.1076 14.4679 4.0656C14.5099 4.0236 14.5669 4 14.6263 4C14.6857 4 14.7427 4.0236 14.7847 4.0656C14.8267 4.1076 14.8503 4.16456 14.8503 4.22396V5.32968C14.8503 5.35908 14.8445 5.38819 14.8332 5.41535C14.8219 5.4425 14.8054 5.46718 14.7846 5.48796C14.7638 5.50873 14.7392 5.52521 14.712 5.53644C14.6848 5.54767 14.6557 5.55343 14.6263 5.5534Z" fill="#AECF5A"/>
<path d="M19.7854 7.69032C19.7412 7.69031 19.6979 7.67718 19.6611 7.65258C19.6243 7.62799 19.5956 7.59303 19.5786 7.55213C19.5616 7.51124 19.5572 7.46623 19.5658 7.4228C19.5744 7.37937 19.5957 7.33947 19.627 7.30814L20.4089 6.52648C20.4508 6.48451 20.5077 6.46094 20.5671 6.46094C20.5965 6.46094 20.6256 6.46673 20.6527 6.47797C20.6799 6.48922 20.7045 6.5057 20.7253 6.52648C20.7461 6.54725 20.7626 6.57192 20.7738 6.59907C20.7851 6.62622 20.7909 6.65531 20.7909 6.6847C20.7909 6.71408 20.7851 6.74318 20.7738 6.77033C20.7626 6.79748 20.7461 6.82214 20.7253 6.84292L19.9437 7.62481C19.9229 7.64559 19.8982 7.66206 19.8711 7.6733C19.8439 7.68454 19.8148 7.69032 19.7854 7.69032Z" fill="#AECF5A"/>
<path d="M8.68462 18.7908C8.64036 18.7908 8.59712 18.7776 8.56034 18.753C8.52356 18.7284 8.4949 18.6934 8.47797 18.6525C8.46104 18.6116 8.45661 18.5666 8.46523 18.5232C8.47384 18.4798 8.49513 18.4399 8.5264 18.4086L9.30806 17.627C9.35049 17.5872 9.40673 17.5655 9.46488 17.5664C9.52303 17.5674 9.57853 17.5909 9.61964 17.6321C9.66075 17.6732 9.68424 17.7287 9.68515 17.7869C9.68605 17.845 9.66431 17.9012 9.6245 17.9436L8.84284 18.7253C8.82211 18.7461 8.79745 18.7627 8.77029 18.7739C8.74313 18.7851 8.71401 18.7909 8.68462 18.7908Z" fill="#AECF5A"/>
<path d="M23.0279 12.8503H21.9222C21.8628 12.8503 21.8058 12.8267 21.7638 12.7847C21.7218 12.7427 21.6982 12.6857 21.6982 12.6263C21.6982 12.5669 21.7218 12.5099 21.7638 12.4679C21.8058 12.4259 21.8628 12.4023 21.9222 12.4023H23.0279C23.0873 12.4023 23.1443 12.4259 23.1863 12.4679C23.2283 12.5099 23.2519 12.5669 23.2519 12.6263C23.2519 12.6857 23.2283 12.7427 23.1863 12.7847C23.1443 12.8267 23.0873 12.8503 23.0279 12.8503Z" fill="#AECF5A"/>
<path d="M7.32968 12.8503H6.22396C6.16456 12.8503 6.1076 12.8267 6.0656 12.7847C6.0236 12.7427 6 12.6857 6 12.6263C6 12.5669 6.0236 12.5099 6.0656 12.4679C6.1076 12.4259 6.16456 12.4023 6.22396 12.4023H7.32968C7.38907 12.4023 7.44604 12.4259 7.48804 12.4679C7.53004 12.5099 7.55363 12.5669 7.55363 12.6263C7.55363 12.6857 7.53004 12.7427 7.48804 12.7847C7.44604 12.8267 7.38907 12.8503 7.32968 12.8503Z" fill="#AECF5A"/>
<path d="M20.5675 18.7912C20.5381 18.7913 20.509 18.7855 20.4818 18.7743C20.4546 18.763 20.43 18.7465 20.4093 18.7257L19.6274 17.944C19.5865 17.9018 19.564 17.8452 19.5645 17.7865C19.565 17.7278 19.5885 17.6716 19.63 17.63C19.6716 17.5885 19.7278 17.565 19.7865 17.5645C19.8452 17.564 19.9018 17.5865 19.944 17.6274L20.7257 18.409C20.757 18.4403 20.7782 18.4802 20.7869 18.5236C20.7955 18.567 20.7911 18.612 20.7741 18.6529C20.7572 18.6938 20.7285 18.7288 20.6918 18.7534C20.655 18.778 20.6117 18.7911 20.5675 18.7912Z" fill="#AECF5A"/>
<path d="M9.46636 7.69032C9.43698 7.69034 9.40788 7.68456 9.38073 7.67332C9.35358 7.66208 9.32891 7.6456 9.30814 7.62481L8.52648 6.84292C8.5057 6.82214 8.48922 6.79748 8.47797 6.77033C8.46673 6.74318 8.46094 6.71408 8.46094 6.6847C8.46094 6.65531 8.46673 6.62622 8.47797 6.59907C8.48922 6.57192 8.5057 6.54725 8.52648 6.52648C8.54725 6.5057 8.57192 6.48922 8.59907 6.47797C8.62622 6.46673 8.65531 6.46094 8.6847 6.46094C8.71408 6.46094 8.74318 6.46673 8.77033 6.47797C8.79748 6.48922 8.82214 6.5057 8.84292 6.52648L9.62458 7.30814C9.65585 7.33946 9.67713 7.37934 9.68575 7.42274C9.69437 7.46615 9.68994 7.51114 9.67301 7.55203C9.65608 7.59292 9.62742 7.62787 9.59064 7.65249C9.55386 7.6771 9.51061 7.69026 9.46636 7.69032Z" fill="#AECF5A"/>
<path d="M17.4435 6.11971C17.4139 6.11976 17.3845 6.11379 17.3573 6.10218C17.3301 6.09086 17.3055 6.07429 17.2848 6.05343C17.264 6.03258 17.2476 6.00784 17.2365 5.98063C17.2253 5.95343 17.2196 5.92429 17.2197 5.89488C17.2198 5.86548 17.2257 5.83638 17.2371 5.80926L17.664 4.78957C17.6748 4.76168 17.6911 4.73623 17.7119 4.71473C17.7327 4.69323 17.7576 4.67612 17.7851 4.66439C17.8126 4.65267 17.8422 4.64658 17.8722 4.64649C17.9021 4.64639 17.9317 4.65228 17.9593 4.66382C17.9869 4.67537 18.0119 4.69232 18.0328 4.71368C18.0538 4.73505 18.0702 4.76039 18.0812 4.78821C18.0922 4.81604 18.0975 4.84578 18.0968 4.87568C18.0961 4.90559 18.0894 4.93505 18.0771 4.96233L17.6497 5.98225C17.6327 6.02291 17.6041 6.05765 17.5674 6.0821C17.5307 6.10655 17.4876 6.11964 17.4435 6.11971Z" fill="#AECF5A"/>
<path d="M21.3779 10.0839C21.3261 10.0838 21.2759 10.0658 21.2359 10.0328C21.1959 9.99989 21.1685 9.95408 21.1585 9.90322C21.1485 9.85237 21.1564 9.79961 21.181 9.75395C21.2055 9.70829 21.2451 9.67256 21.2931 9.65284L22.316 9.23352C22.371 9.21098 22.4328 9.21123 22.4877 9.23422C22.5425 9.25721 22.586 9.30106 22.6086 9.35611C22.6311 9.41117 22.6308 9.47292 22.6079 9.52779C22.5849 9.58266 22.541 9.62615 22.486 9.64869L21.4628 10.0666C21.4359 10.0779 21.4071 10.0838 21.3779 10.0839Z" fill="#AECF5A"/>
<path d="M6.8518 16.0358C6.79995 16.0358 6.74971 16.0178 6.70965 15.9848C6.6696 15.9519 6.64222 15.9061 6.63217 15.8552C6.62213 15.8043 6.63005 15.7516 6.65458 15.7059C6.67911 15.6602 6.71874 15.6244 6.76669 15.6047L7.78984 15.1856C7.84489 15.1631 7.90664 15.1634 7.96148 15.1864C8.01633 15.2094 8.05979 15.2533 8.0823 15.3083C8.10481 15.3634 8.10453 15.4251 8.08152 15.48C8.05851 15.5348 8.01465 15.5783 7.9596 15.6008L6.93645 16.0201C6.90951 16.0308 6.88077 16.0361 6.8518 16.0358Z" fill="#AECF5A"/>
<path d="M22.3765 16.0949C22.3469 16.0949 22.3176 16.089 22.2903 16.0776L21.2715 15.6506C21.2178 15.627 21.1754 15.5832 21.1537 15.5287C21.1319 15.4742 21.1324 15.4133 21.1551 15.3591C21.1778 15.305 21.2208 15.2619 21.2749 15.2392C21.329 15.2164 21.3899 15.2158 21.4445 15.2376L22.463 15.6656C22.5107 15.6857 22.5499 15.7216 22.5741 15.7672C22.5983 15.8129 22.6059 15.8655 22.5957 15.9162C22.5856 15.9669 22.5582 16.0124 22.5182 16.0452C22.4783 16.078 22.4282 16.0959 22.3765 16.096V16.0949Z" fill="#AECF5A"/>
<path d="M7.89548 10.0316C7.86579 10.0316 7.83639 10.0257 7.80898 10.0143L6.7893 9.58738C6.73607 9.56343 6.6943 9.51965 6.67287 9.46537C6.65144 9.41108 6.65205 9.35057 6.67457 9.29673C6.69708 9.24289 6.73973 9.19996 6.79343 9.17709C6.84712 9.15422 6.90763 9.15322 6.96205 9.17429L7.98197 9.60122C8.0296 9.62126 8.06883 9.65715 8.09302 9.70282C8.11721 9.74848 8.12486 9.80111 8.11468 9.85177C8.1045 9.90243 8.07711 9.94801 8.03716 9.98079C7.99721 10.0136 7.94715 10.0315 7.89548 10.0316Z" fill="#AECF5A"/>
<path d="M11.8592 6.09853C11.8148 6.09857 11.7714 6.08544 11.7344 6.06081C11.6975 6.03617 11.6687 6.00115 11.6516 5.96015L11.2325 4.93723C11.2214 4.90997 11.2157 4.88078 11.2158 4.85132C11.2159 4.82187 11.2219 4.79272 11.2332 4.76555C11.2446 4.73839 11.2613 4.71373 11.2822 4.69298C11.3031 4.67224 11.3279 4.65582 11.3551 4.64466C11.3824 4.63349 11.4116 4.62781 11.441 4.62793C11.4705 4.62805 11.4996 4.63397 11.5268 4.64536C11.554 4.65674 11.5786 4.67336 11.5994 4.69428C11.6201 4.71519 11.6365 4.73998 11.6477 4.76724L12.0668 5.79039C12.0807 5.82443 12.086 5.86136 12.0822 5.89793C12.0785 5.9345 12.0658 5.96959 12.0453 6.0001C12.0248 6.03061 11.9971 6.05561 11.9646 6.0729C11.9322 6.09018 11.896 6.09922 11.8592 6.09923V6.09853Z" fill="#AECF5A"/>
<path d="M16.5872 23.2778H12.8065C12.704 23.2778 12.6056 23.2371 12.5331 23.1646C12.4606 23.0921 12.4199 22.9937 12.4199 22.8912C12.4199 22.8405 12.4299 22.7902 12.4494 22.7433C12.4688 22.6964 12.4973 22.6538 12.5332 22.618C12.5691 22.5821 12.6117 22.5536 12.6586 22.5342C12.7055 22.5148 12.7557 22.5049 12.8065 22.5049H16.5872C16.6897 22.5049 16.788 22.5456 16.8604 22.618C16.9329 22.6905 16.9736 22.7888 16.9736 22.8912C16.9736 22.942 16.9636 22.9922 16.9442 23.0391C16.9248 23.086 16.8964 23.1286 16.8605 23.1645C16.8246 23.2004 16.782 23.2289 16.7351 23.2483C16.6883 23.2678 16.638 23.2778 16.5872 23.2778Z" fill="#AECF5A"/>
<path d="M16.5872 24.4916H12.8065C12.7557 24.4917 12.7055 24.4817 12.6586 24.4623C12.6117 24.4429 12.5691 24.4144 12.5332 24.3786C12.4973 24.3427 12.4688 24.3001 12.4494 24.2532C12.4299 24.2063 12.4199 24.1561 12.4199 24.1053C12.4199 24.0028 12.4606 23.9045 12.5331 23.832C12.6056 23.7595 12.704 23.7188 12.8065 23.7188H16.5872C16.638 23.7187 16.6883 23.7287 16.7351 23.7482C16.782 23.7676 16.8246 23.7961 16.8605 23.832C16.8964 23.8679 16.9248 23.9105 16.9442 23.9574C16.9636 24.0043 16.9736 24.0546 16.9736 24.1053C16.9736 24.2078 16.9329 24.306 16.8604 24.3785C16.788 24.4509 16.6897 24.4916 16.5872 24.4916Z" fill="#AECF5A"/>
<path d="M13.7788 24.9482C13.7568 24.9482 13.7351 24.9531 13.7152 24.9624C13.6953 24.9718 13.6776 24.9854 13.6636 25.0023C13.6495 25.0192 13.6393 25.039 13.6338 25.0602C13.6282 25.0815 13.6274 25.1038 13.6314 25.1254C13.6776 25.3712 13.8082 25.5931 14.0007 25.7527C14.1932 25.9124 14.4354 25.9998 14.6855 25.9998C14.9355 25.9998 15.1777 25.9124 15.3702 25.7527C15.5627 25.5931 15.6933 25.3712 15.7395 25.1254C15.7435 25.1038 15.7426 25.0815 15.737 25.0603C15.7315 25.039 15.7213 25.0193 15.7072 25.0024C15.6932 24.9855 15.6756 24.9719 15.6557 24.9625C15.6358 24.9532 15.6141 24.9483 15.5921 24.9482H13.7788Z" fill="#AECF5A"/>
<path d="M16.1875 22.018H13.1513C12.8964 22.0171 12.6511 21.9204 12.4643 21.747C12.2775 21.5735 12.1627 21.3362 12.1429 21.082C12.0142 19.3702 11.3156 18.2854 10.5761 17.138C9.76887 15.8856 8.93555 14.5907 8.93555 12.4964C8.93555 9.66894 10.9581 7.28936 13.745 6.83845C14.4034 6.73283 15.0751 6.74063 15.7308 6.86152C18.4384 7.36894 20.4035 9.73721 20.4035 12.4957C20.4035 14.59 19.5695 15.8849 18.7627 17.1373C18.023 18.2857 17.3246 19.3704 17.1959 21.0813C17.1763 21.3356 17.0616 21.5731 16.8748 21.7467C16.6879 21.9203 16.4426 22.0171 16.1875 22.018Z" fill="#AECF5A"/>
<path d="M11.8911 16.0885C11.8322 16.0886 11.7741 16.0748 11.7216 16.0481C11.6691 16.0215 11.6237 15.9827 11.5891 15.9351C9.51771 13.0896 11.0446 10.4192 11.1108 10.3073C11.1627 10.2259 11.2441 10.1678 11.3379 10.1452C11.4317 10.1225 11.5306 10.1371 11.6139 10.1858C11.6972 10.2346 11.7584 10.3137 11.7846 10.4066C11.8108 10.4994 11.8 10.5989 11.7545 10.684C11.6973 10.7824 10.4168 13.0564 12.1927 15.4952C12.2332 15.5509 12.2576 15.6166 12.263 15.6853C12.2685 15.7539 12.2548 15.8226 12.2236 15.884C12.1924 15.9453 12.1449 15.9968 12.0862 16.0329C12.0276 16.0689 11.9601 16.0879 11.8913 16.088L11.8911 16.0885Z" fill="#048372"/>
</svg>
