<svg width="30" height="30" viewBox="0 0 30 30" fill="none" xmlns="http://www.w3.org/2000/svg">
<rect width="30" height="30" rx="4" fill="#AECF5A"/>
<path d="M13.708 21.8663C13.708 21.8663 14.1476 22.126 14.5019 21.9203C14.8563 21.7145 15.1046 21.5583 15.1046 21.5583L14.326 21.1016L13.708 21.8663Z" fill="#048372"/>
<path opacity="0.5" d="M13.708 21.8663C13.708 21.8663 14.1476 22.126 14.5019 21.9203C14.8563 21.7145 15.1046 21.5583 15.1046 21.5583L14.326 21.1016L13.708 21.8663Z" fill="#048372"/>
<path d="M19.6304 19.0621C19.4672 19.3021 19.1287 19.555 18.4415 19.1704C18.4415 19.1704 18.442 19.171 18.4426 19.172C18.4581 19.1969 18.6675 19.5296 18.57 19.9219C18.5597 19.9649 18.5452 20.0085 18.5265 20.0525C18.525 20.0556 18.5239 20.0587 18.5224 20.0618C18.3182 20.5278 17.6895 20.563 17.5164 20.506V20.5065C17.5206 20.5153 17.633 20.7532 17.4532 21.0434C17.4319 21.0776 17.4071 21.1124 17.377 21.1481C17.0889 21.4891 16.6898 21.4088 16.569 21.3705C16.4478 21.3326 16.311 21.2243 16.311 21.2243C16.311 21.2243 16.2876 21.4223 16.1658 21.5866C16.0803 21.7021 15.9461 21.8006 15.7378 21.8022C15.4035 21.8048 15.1407 21.7104 14.8381 21.5467C14.7696 21.5099 14.6997 21.4694 14.6261 21.4259C14.5312 21.3694 14.4307 21.3077 14.3224 21.2414C13.7559 20.8947 11.5518 19.8069 11.5518 19.8069C11.5518 19.8069 11.1444 19.47 10.679 19.0937C10.2779 18.7688 9.83374 18.4138 9.57202 18.221L9.13306 18.0106L7.85192 17.397L7.25074 17.1088L5.52441 16.2822L7.89804 12.8896L9.06827 13.4012L10.536 14.0423L11.4082 14.4237L13.3968 13.963L13.8731 13.851L15.4672 14.8616L19.4138 17.3643L19.5713 17.9966L19.7268 18.3449C19.7268 18.3449 19.7268 18.3448 19.7273 18.3454C19.7444 18.3837 19.7543 18.4257 19.7563 18.4677C19.7563 18.4703 19.7563 18.4734 19.7569 18.476C19.7605 18.6066 19.7517 18.8838 19.6304 19.0621Z" fill="#048372"/>
<path opacity="0.5" d="M14.6259 21.4266C14.5311 21.3702 14.4307 21.3084 14.322 21.242C13.7556 20.8956 11.5518 19.8079 11.5518 19.8079C11.5518 19.8079 11.144 19.4709 10.679 19.0943C10.2776 18.7693 9.83349 18.4148 9.57187 18.2219L9.13286 18.0115L7.85156 17.3977L8.12355 16.9238L10.0616 17.8386C10.0616 17.8386 12.4671 19.8648 13.162 20.3018C13.8568 20.7389 14.6004 21.3079 14.6004 21.3079L14.6259 21.4266Z" fill="#048372"/>
<path opacity="0.5" d="M10.5362 14.0426L9.13335 18.011L7.25098 17.1093L9.06862 13.4014L10.5362 14.0426Z" fill="#048372"/>
<path opacity="0.5" d="M19.7276 18.346C19.7274 18.3458 19.7274 18.3458 19.7272 18.3456L19.572 17.9973L19.4143 17.3652L15.4678 14.8625L15.4678 14.8625L13.8735 13.8516L13.3975 13.9635L13.0974 14.3949L11.7578 16.2316C11.7578 16.2316 11.9867 16.8074 12.721 16.7456C13.4553 16.6836 14.0754 15.6652 14.3344 15.544C14.4373 15.496 15.012 15.7007 15.7248 16.0014C16.7776 16.5843 18.8316 17.7284 19.2691 18.0226C19.5075 18.1829 19.6598 18.3391 19.7566 18.4685C19.7546 18.4262 19.7447 18.3846 19.7276 18.346Z" fill="#048372"/>
<path opacity="0.5" d="M18.5708 19.9221C18.1567 19.6313 17.4602 19.1571 17.1047 18.9136C16.5221 18.5145 16.5947 18.0107 16.5947 18.0107L18.4423 19.1706C18.4423 19.1706 18.4428 19.1711 18.4433 19.1722C18.4589 19.197 18.6682 19.5298 18.5708 19.9221Z" fill="#048372"/>
<path opacity="0.5" d="M17.4532 21.0435C17.1586 20.8449 16.6758 20.5188 16.3819 20.3191C15.9364 20.0165 15.917 19.4346 15.917 19.4346L17.5165 20.5062L17.5167 20.5064C17.5208 20.5152 17.6329 20.7531 17.4532 21.0435Z" fill="#048372"/>
<path opacity="0.5" d="M16.3115 21.2249C16.3115 21.2249 16.2881 21.4231 16.1662 21.5873C15.911 21.4354 15.5402 21.2063 15.3051 21.0237C14.9177 20.7226 14.9377 20.4092 14.9377 20.4092L16.3115 21.2249Z" fill="#048372"/>
<path d="M25.3443 15.3948L22.0251 16.6091L20.6765 17.1024C20.667 17.1136 20.6572 17.1247 20.6475 17.1358C20.395 17.4235 20.0855 17.6604 19.8633 17.8123C19.691 17.9306 19.5713 17.9975 19.5713 17.9975L19.4778 17.8776C19.3836 17.7567 19.2676 17.6542 19.1361 17.5755L18.5731 17.2381L17.507 16.5989L17.3085 16.4799L17.1812 16.4036L14.9211 15.0488C14.8376 14.9988 14.7392 14.9827 14.6453 15.0024C14.6297 15.0057 14.6144 15.01 14.5991 15.0151L13.9486 15.2396L13.9115 15.2524C13.8988 15.2568 13.8863 15.2619 13.8742 15.2677C13.8329 15.2868 13.7956 15.3134 13.7637 15.3457C13.7447 15.3649 13.7276 15.3864 13.713 15.4096C13.2152 16.1959 12.6969 16.4418 12.3077 16.4883C12.2587 16.4943 12.2119 16.4971 12.1674 16.4973C12.0655 16.4977 11.9759 16.4854 11.902 16.4683C11.7422 16.4312 11.6538 16.2595 11.7147 16.1071L12.4215 14.5609C12.4833 14.4062 12.5974 14.2783 12.7437 14.1991L14.6609 13.1621C14.7862 13.0943 14.9291 13.0656 15.0709 13.0799L18.3847 13.4135L19.4137 13.0332L20.756 12.5373L23.8457 11.3955L25.1059 14.7589L25.3443 15.3948Z" fill="#048372"/>
<path d="M10.3154 13.7043L8.28924 18.1232L6.88527 17.4857L5.46094 16.8392L7.84737 12.5156L8.83921 12.9934L10.3154 13.7043Z" fill="#AECF5A"/>
<path opacity="0.5" d="M14.8384 21.5468C14.6823 21.4625 14.5155 21.3593 14.3227 21.2415C13.7563 20.895 11.5524 19.8073 11.5524 19.8073C11.5524 19.8073 11.1447 19.4703 10.6797 19.0938C10.889 19.1002 11.3088 19.1752 11.7408 19.6118L12.3149 19.3392C12.3149 19.3392 12.9415 19.3907 13.1812 20.2169L13.7725 19.9535C13.7725 19.9535 14.1945 20.1566 14.2586 20.6991C14.2586 20.6991 14.7338 20.8687 14.8131 21.1673C14.8549 21.3251 14.8513 21.4572 14.8384 21.5468Z" fill="#048372"/>
<path d="M11.1263 20.1075C11.0367 20.1195 10.9338 20.1064 10.8249 20.0558C10.4723 19.8924 10.1407 19.2511 10.4052 19.0637C10.4052 19.0637 10.5468 18.9214 10.914 19.1421C11.1297 19.2715 11.2699 19.3962 11.3526 19.5201C11.4108 19.6069 11.4406 19.6934 11.4484 19.7806C11.4613 19.9266 11.3269 20.0803 11.1263 20.1075Z" fill="#048372"/>
<path opacity="0.5" d="M11.126 20.1079C11.1824 19.8819 11.2885 19.6495 11.3523 19.5205C11.4105 19.6074 11.4403 19.6938 11.4481 19.781C11.461 19.927 11.3266 20.0808 11.126 20.1079Z" fill="#048372"/>
<path d="M11.7195 20.9523C11.4034 20.8851 11.208 20.565 11.2824 20.2505C11.3301 20.0489 11.4182 19.7753 11.5767 19.5284C11.8898 19.0406 12.8052 19.247 12.7137 20.0644L12.3612 20.8574C12.3612 20.8574 12.0419 21.0207 11.7195 20.9523Z" fill="#048372"/>
<path d="M13.8626 20.5954L13.438 21.4795C13.4143 21.4905 12.9969 21.6338 12.6439 21.3829C12.6208 21.3664 12.5996 21.35 12.58 21.3332C12.3043 21.0996 12.3613 20.8579 12.3613 20.8579L12.7138 20.0648C12.7138 20.0648 12.9667 19.5804 13.4055 19.6927C13.4145 19.6948 13.4237 19.6973 13.4329 19.7002C13.8884 19.8401 13.9762 20.261 13.8626 20.5954Z" fill="#048372"/>
<path d="M14.6498 21.0754C14.6039 21.3066 14.41 21.8976 14.41 21.8976C14.3294 21.9739 14.1964 22.0576 13.8336 21.9259C13.7619 21.8999 13.7029 21.8666 13.6549 21.8301C13.4593 21.6819 13.4385 21.4793 13.4385 21.4793L13.7865 20.7546C13.9419 20.6211 14.0899 20.591 14.2181 20.6169C14.4878 20.6713 14.6703 20.9725 14.6498 21.0754Z" fill="#048372"/>
<path opacity="0.5" d="M13.4055 19.6927C13.2806 19.7853 13.0482 20.0029 12.8904 20.4226C12.7726 20.736 12.6602 21.0783 12.58 21.3333C12.3043 21.0997 12.3613 20.8579 12.3613 20.8579L12.7138 20.0649C12.7138 20.0649 12.9667 19.5804 13.4055 19.6927Z" fill="#048372"/>
<path opacity="0.5" d="M14.2181 20.6169C14.1347 20.689 14.0111 20.8395 13.8949 21.1467C13.7979 21.4037 13.7149 21.6474 13.6549 21.8301C13.4593 21.6818 13.4385 21.4793 13.4385 21.4793L13.7865 20.7545C13.9419 20.6211 14.0899 20.591 14.2181 20.6169Z" fill="#048372"/>
<path opacity="0.5" d="M25.1068 14.758C22.665 15.5822 19.8423 16.5502 19.5897 16.7043C19.3719 16.8372 19.1498 16.9091 18.9779 16.9481C18.7137 16.7797 18.3759 16.5668 18.0065 16.3361C18.6226 15.8494 18.5685 15.0628 18.5685 15.0628C18.3787 15.6663 18.0675 16.0017 17.7687 16.1877C16.4643 15.3756 14.8981 14.4231 14.783 14.42C14.5913 14.4149 13.767 14.6831 13.767 14.6831C13.767 14.6831 13.7158 15.5138 13.0395 16.0308C12.7536 16.2494 12.5038 16.3935 12.3086 16.4874C12.6978 16.4409 13.2161 16.1951 13.7139 15.4087C13.7284 15.3856 13.7456 15.3641 13.7646 15.3448C13.7717 15.3376 13.7793 15.3307 13.787 15.324C13.7886 15.3226 13.7902 15.3212 13.792 15.3198C13.7997 15.3134 13.8077 15.3071 13.8158 15.3013C13.8166 15.3008 13.8173 15.3003 13.818 15.2998C13.8259 15.2943 13.834 15.2892 13.8423 15.2843C13.8438 15.2834 13.8453 15.2825 13.8468 15.2817C13.856 15.2764 13.8655 15.2714 13.8752 15.2669C13.8809 15.2641 13.8868 15.2615 13.8927 15.2591C13.8992 15.2565 13.9057 15.254 13.9124 15.2516L13.9496 15.2388L14.6 15.0143C14.6073 15.0118 14.6147 15.0096 14.622 15.0075C14.624 15.007 14.626 15.0066 14.628 15.006C14.6331 15.0047 14.6383 15.0034 14.6435 15.0023C14.7382 14.9817 14.8378 14.9976 14.922 15.048L17.182 16.4029L17.5079 16.5981L18.574 17.2373V17.2373L19.137 17.5748C19.2685 17.6535 19.3844 17.756 19.4787 17.8769L19.5722 17.9968C19.5722 17.9968 19.6919 17.9298 19.8642 17.8116C20.095 17.6537 20.4198 17.4044 20.6774 17.1016L25.3452 15.3941L25.1068 14.758Z" fill="#048372"/>
<path opacity="0.5" d="M22.0254 16.6091L20.6769 17.1023C20.6673 17.1136 20.6576 17.1246 20.6479 17.1357L19.4141 13.033L20.7564 12.5371L22.0254 16.6091Z" fill="#048372"/>
<path d="M24.2556 16.3424L22.8759 16.8133L21.3159 17.3458L19.7285 12.751L21.2827 12.1809L22.3003 11.8076L24.2556 16.3424Z" fill="#AECF5A"/>
<path d="M24.2561 16.3424L22.8764 16.8133L21.2832 12.1809L22.3008 11.8076L24.2561 16.3424Z" fill="#048372"/>
<path d="M27.9131 9.13867V16.3181L24.079 18.0828L23.4731 16.6094L23.2834 16.1481L23.0057 15.4718L22.56 14.3876L22.447 14.1124L21.6613 12.2021L21.6038 12.0627L21.5234 11.8668L24.5086 10.7686L27.9131 9.13867Z" fill="#048372"/>
<path d="M8.83921 12.9934L6.88527 17.4857L5.46094 16.8392L7.84737 12.5156L8.83921 12.9934Z" fill="#048372"/>
<path d="M8.61455 12.6506L8.51556 12.8372L8.37667 13.0994L7.47749 14.7957L7.33859 15.0585L6.45392 16.7273L6.21345 17.1807L5.46716 18.5888L2.93701 17.1113L2.33998 16.7625L2 16.564V9L5.75013 11.2674L8.61455 12.6506Z" fill="#048372"/>
<path d="M3.37357 16.6133C3.35932 16.9067 3.10993 17.133 2.81654 17.1187C2.52316 17.1044 2.29689 16.855 2.31119 16.5617C2.32549 16.2683 2.57483 16.042 2.86821 16.0563C3.16155 16.0706 3.38782 16.32 3.37357 16.6133Z" fill="#048372"/>
</svg>
