<svg width="483" height="507" viewBox="0 0 483 507" fill="none" xmlns="http://www.w3.org/2000/svg">
<path opacity="0.1" fill-rule="evenodd" clip-rule="evenodd" d="M306.771 363.921L298.958 175.249C296.114 178.144 292.837 180.613 289.239 182.57L292.308 366.478H288.774L278.975 186.467C275.97 187.164 272.837 187.533 269.624 187.533C256.131 187.533 244.152 181.038 236.644 171.007L233.479 197.668C236.628 203.129 239.144 209.142 241.236 215.172C257.565 262.112 267.861 301.979 272.372 351.588C272.853 356.816 272.188 361.836 270.618 366.478H260.994C262.933 362.189 263.855 357.418 263.398 352.406C258.863 302.46 249.809 267.235 232.734 218.139C226.669 200.707 217.638 184.574 199.193 184.574H75.1419C56.6889 184.574 41.593 199.681 41.593 218.139V307.471H31.8577C22.0423 307.471 14.0137 315.506 14.0137 325.32V340.355V368.114C14.0137 377.937 22.0423 385.971 31.8577 385.971H75.1339H82.6415H229.866H274.848C289.279 385.971 302.684 376.678 307.035 363.824L306.771 363.921ZM174.53 392.089H98.7952V405.087H174.53V392.089ZM483 209.872H479.643V52.023V51.558H479.482L462.047 0H447.576L434.083 46.5225L445.405 216.511L438.826 225.211H359.542L343.364 209.864H332.106L373.003 269.152H442.096L483 209.872ZM471.534 209.872H462.904L471.534 128.518V209.872ZM269.624 114.101C287.404 114.101 301.811 128.518 301.811 146.311C301.811 164.095 287.404 178.52 269.624 178.52C251.852 178.52 237.437 164.103 237.437 146.311C237.445 128.518 251.852 114.101 269.624 114.101ZM289.183 110.004C284.688 107.574 279.696 105.962 274.391 105.345L438.162 7.30471L434.564 19.7091L289.183 110.004ZM310.825 146.359V146.311C310.825 131.188 302.684 117.966 290.553 110.789L430.742 32.9233L427.016 45.7687L427.641 55.1421L310.825 146.359ZM304.928 414.284H291.939V507H362.819C330.296 485.038 315.456 462.755 304.928 414.284ZM190.091 200.122C204.938 200.122 212.214 213.112 217.085 227.136C230.827 266.658 231.989 280.698 235.635 320.894C236.981 335.688 223.471 347.916 208.64 347.916H130.317C80.7426 347.379 62.1375 302.644 63.2272 284.964V227.136C63.2272 212.286 75.3822 200.122 90.2216 200.122H190.091ZM136.983 433.504C123.041 433.504 111.744 444.81 111.744 458.762C111.744 472.713 123.041 484.019 136.983 484.019C150.925 484.019 162.223 472.705 162.223 458.762C162.223 444.81 150.925 433.504 136.983 433.504ZM38.42 433.504C24.4861 433.504 13.1804 444.81 13.1804 458.762C13.1804 472.713 24.4861 484.019 38.42 484.019C52.362 484.019 63.6598 472.705 63.6598 458.762C63.6598 444.81 52.362 433.504 38.42 433.504ZM234.905 433.504C220.972 433.504 209.666 444.81 209.666 458.762C209.666 472.713 220.972 484.019 234.905 484.019C248.847 484.019 260.153 472.705 260.153 458.762C260.161 444.81 248.847 433.504 234.905 433.504ZM240.13 410.523C266.652 410.523 288.342 432.229 288.342 458.762C288.342 485.294 266.652 507 240.13 507H33.2038C6.69009 507 -15 485.294 -15 458.762C-15 432.229 6.69009 410.523 33.2038 410.523H240.13ZM235.17 423.12C256.588 423.12 274.103 439.157 274.103 458.762C274.103 478.366 256.588 494.403 235.17 494.403H38.1635C16.7458 494.403 -0.761749 478.358 -0.761749 458.762C-0.761749 439.157 16.7538 423.12 38.1635 423.12H235.17Z" fill="#AECF5A"/>
</svg>
