<svg width="152" height="28" viewBox="0 0 152 28" fill="none" xmlns="http://www.w3.org/2000/svg">
<g clip-path="url(#clip0_90_6824)">
<path d="M62.0936 9.21614C61.8694 8.96337 61.6082 8.74541 61.3185 8.56957C60.9654 8.35385 60.5951 8.16694 60.2113 8.01066C59.7859 7.83492 59.3448 7.69916 58.8937 7.60518C58.4066 7.49833 57.9089 7.44685 57.41 7.45176C56.377 7.37004 55.3455 7.62814 54.4759 8.18601C54.1677 8.42574 53.9215 8.73465 53.7579 9.0872C53.5942 9.43974 53.5177 9.82579 53.5347 10.2134C53.5001 10.7367 53.6751 11.2525 54.0219 11.649C54.4356 12.0558 54.9457 12.3535 55.5056 12.5148C56.1699 12.734 57.0225 12.9641 58.0633 13.2052C59.1213 13.4151 60.1559 13.7271 61.1524 14.1367C61.9434 14.4415 62.6387 14.9481 63.1676 15.6052C63.6644 16.3221 63.9094 17.1808 63.8651 18.049C63.8878 18.7824 63.7241 19.5096 63.389 20.1641C63.0773 20.7555 62.6252 21.2632 62.0714 21.6435C61.474 22.0546 60.8005 22.3451 60.0895 22.4983C59.2813 22.6925 58.4521 22.7882 57.6204 22.7833C56.7634 22.7824 55.9093 22.6868 55.0738 22.4983C54.2555 22.3229 53.4604 22.0544 52.7043 21.6983C51.9635 21.3435 51.2683 20.902 50.6338 20.3833L51.6746 18.5641C51.9718 18.8708 52.3066 19.1395 52.6711 19.3641C53.1202 19.644 53.5903 19.8895 54.0773 20.0983C54.6275 20.3294 55.1984 20.5092 55.7824 20.6353C56.4045 20.7682 57.0393 20.8343 57.6757 20.8326C58.6707 20.8899 59.6615 20.6656 60.5324 20.186C60.8535 19.9798 61.1151 19.6947 61.2917 19.3586C61.4682 19.0225 61.5538 18.6468 61.54 18.2682C61.5545 17.9881 61.512 17.7079 61.415 17.4443C61.318 17.1808 61.1685 16.9392 60.9753 16.734C60.4962 16.2918 59.9202 15.9654 59.2923 15.7805C58.5505 15.5285 57.6425 15.2655 56.5796 15.0134C55.5805 14.78 54.6028 14.4648 53.6565 14.0709C52.9466 13.7956 52.329 13.3285 51.8739 12.723C51.4502 12.0717 51.2449 11.3047 51.2871 10.5312C51.2546 9.55423 51.5335 8.5919 52.0843 7.78053C52.6403 7.01372 53.4097 6.42354 54.2987 6.0819C55.3058 5.68659 56.3821 5.4929 57.4654 5.51203C58.2107 5.50178 58.9545 5.58276 59.6798 5.75313C60.3272 5.9048 60.955 6.12908 61.551 6.42162C62.1113 6.71054 62.6353 7.06365 63.1122 7.47368L62.0936 9.21614Z" fill="white"/>
<path d="M72.7007 22.1044L71.97 22.4222C71.6105 22.5613 71.2402 22.6713 70.8627 22.751C70.4421 22.8501 70.0108 22.8979 69.5784 22.8934C69.0882 22.9012 68.6018 22.8079 68.15 22.6194C67.7252 22.4429 67.3629 22.1454 67.1092 21.7647C66.8386 21.3188 66.704 20.805 66.7217 20.2852V11.8797H65.0498V10.2249H66.766V6.06055H68.903V10.2249H71.7264V11.8797H68.903V19.6386C68.8996 19.8277 68.9386 20.0152 69.0171 20.1876C69.0956 20.36 69.2116 20.5131 69.3569 20.6359C69.6336 20.8523 69.9788 20.9648 70.3313 20.9537C70.7102 20.9531 71.0857 20.8825 71.4385 20.7455C71.6811 20.654 71.9177 20.5479 72.1471 20.4277L72.7007 22.1044Z" fill="white"/>
<path d="M73.6854 19.0684C73.668 18.3221 73.9148 17.5933 74.383 17.0081C74.8788 16.3971 75.5333 15.9311 76.2763 15.6602C77.1753 15.3287 78.1296 15.1688 79.0887 15.189C79.671 15.2004 80.2518 15.2517 80.827 15.3424C81.397 15.4145 81.9574 15.5468 82.4989 15.7369V14.8273C82.5167 14.4226 82.4491 14.0187 82.3004 13.6414C82.1517 13.264 81.9252 12.9214 81.6353 12.6355C80.9522 12.0531 80.0661 11.7582 79.1662 11.8136C78.4803 11.81 77.8 11.9365 77.1621 12.1862C76.4555 12.4848 75.7805 12.8519 75.147 13.2821L74.3719 11.8027C75.1336 11.274 75.9642 10.85 76.841 10.5424C77.6648 10.2658 78.5289 10.1251 79.3987 10.1259C80.8004 10.0507 82.176 10.5229 83.2297 11.441C83.71 11.9219 84.0833 12.497 84.3255 13.1293C84.5677 13.7616 84.6734 14.4371 84.6359 15.1122V20.2739C84.6162 20.4727 84.6714 20.6718 84.7909 20.8328C84.9312 20.964 85.1183 21.0349 85.3113 21.0301V22.6629L84.7688 22.7287C84.6434 22.7378 84.5176 22.7378 84.3923 22.7287C84.1894 22.741 83.9861 22.7113 83.7955 22.6415C83.6048 22.5717 83.431 22.4633 83.2851 22.3232C83.0543 22.0914 82.9065 21.7912 82.8643 21.4684V20.6684C82.2949 21.3838 81.5522 21.9454 80.7052 22.3013C79.8763 22.67 78.9789 22.8641 78.07 22.8712C77.302 22.8791 76.543 22.7063 75.8556 22.367C75.2264 22.0521 74.6948 21.5751 74.3165 20.9862C73.9216 20.4216 73.7022 19.7549 73.6854 19.0684ZM81.9121 19.9451C82.0993 19.7419 82.2559 19.5131 82.3772 19.2657C82.4738 19.086 82.5304 18.888 82.5432 18.6848V17.1396C82.0322 16.9512 81.5063 16.8046 80.971 16.7013C80.4379 16.6019 79.8968 16.5506 79.3544 16.5479C78.436 16.5039 77.5244 16.7247 76.7303 17.1835C76.4212 17.3508 76.164 17.5985 75.9865 17.8997C75.8089 18.2009 75.7178 18.5444 75.7227 18.8931C75.7246 19.2981 75.8354 19.6952 76.0438 20.0438C76.2792 20.4316 76.6158 20.7496 77.0182 20.9643C77.5076 21.2116 78.0523 21.3322 78.6015 21.315C79.2489 21.317 79.8898 21.1864 80.4838 20.9314C81.0336 20.7102 81.5284 20.3737 81.9343 19.9451H81.9121Z" fill="white"/>
<path d="M88.6664 22.6632V11.8139H86.9502V10.1591H88.6664V10.0605C88.6598 9.34372 88.8309 8.63631 89.1646 8.00019C89.4885 7.36576 89.9778 6.82851 90.5819 6.44403C91.2424 6.02816 92.0139 5.81818 92.7963 5.84129C93.3315 5.83458 93.8648 5.90472 94.3797 6.04951C94.8147 6.18934 95.2369 6.36531 95.6419 6.57554L95.0551 8.19745C94.7672 8.00219 94.4494 7.85417 94.1139 7.7591C93.8047 7.69403 93.4889 7.66461 93.1728 7.67143C92.8186 7.66824 92.4677 7.73919 92.1431 7.87965C91.8646 8.00215 91.6146 8.18023 91.4089 8.40274C91.2031 8.62525 91.046 8.88741 90.9473 9.1728C90.8497 9.43632 90.7974 9.71411 90.7923 9.99471V10.1701H94.1139V11.8249H90.7923V22.6742L88.6664 22.6632ZM94.4793 11.8139H92.7631V10.1591H94.4793V9.86321C94.4794 9.2493 94.5765 8.63918 94.7672 8.05499C94.956 7.47258 95.2526 6.93002 95.6419 6.45499C96.0398 5.99035 96.5346 5.61649 97.0924 5.3591C97.7385 5.06873 98.4424 4.92638 99.1518 4.94266C99.6928 4.93723 100.232 4.99983 100.757 5.12896C101.222 5.24084 101.675 5.39871 102.108 5.60019C102.45 5.76417 102.776 5.95858 103.082 6.18102L102.197 7.73718C101.829 7.42876 101.404 7.19426 100.946 7.04677C100.408 6.84679 99.8371 6.74649 99.2626 6.75088C98.7223 6.72975 98.1909 6.89216 97.7567 7.21115C97.3631 7.51172 97.0605 7.91357 96.882 8.3728C96.6922 8.84692 96.5982 9.35327 96.6052 9.86321V10.2029H103.071V22.6632H100.934V11.8139H96.6052V22.6632H94.4793V11.8139Z" fill="white"/>
<path d="M117.465 22.6631H115.34V15.7261C115.413 14.7267 115.198 13.7272 114.72 12.844C114.516 12.5417 114.237 12.2975 113.908 12.136C113.58 11.9744 113.214 11.9011 112.848 11.9234C112.243 11.9283 111.647 12.0748 111.11 12.3508C110.546 12.6421 110.039 13.0319 109.615 13.5015C109.174 13.9795 108.845 14.5484 108.652 15.1672V22.6631H106.504V10.2248H108.442V12.9097C108.777 12.3257 109.22 11.809 109.748 11.3864C110.292 10.955 110.906 10.6178 111.564 10.3892C112.248 10.1558 112.966 10.0373 113.69 10.0385C114.323 10.0163 114.951 10.152 115.517 10.433C115.982 10.6886 116.366 11.0683 116.624 11.5289C116.925 12.04 117.132 12.6004 117.233 13.1837C117.357 13.8671 117.416 14.5605 117.41 15.2549L117.465 22.6631Z" fill="white"/>
<path d="M125.814 22.8933C124.999 22.9034 124.193 22.731 123.455 22.3892C122.747 22.0488 122.118 21.5675 121.606 20.9755C121.084 20.371 120.678 19.6763 120.41 18.9262C120.122 18.1582 119.976 17.3453 119.979 16.5262C119.973 15.6782 120.119 14.836 120.41 14.0385C120.675 13.2777 121.084 12.5745 121.617 11.9673C122.128 11.3739 122.757 10.8924 123.466 10.5536C124.205 10.2007 125.016 10.0243 125.836 10.0385C126.807 10.0153 127.763 10.2786 128.582 10.7947C129.37 11.2952 130.045 11.9519 130.564 12.7234V10.2248H132.446V22.5426C132.48 23.6012 132.178 24.6437 131.582 25.5235C131.009 26.3557 130.206 27.0064 129.268 27.3974C128.24 27.8317 127.131 28.0482 126.013 28.033C124.805 28.0807 123.605 27.8243 122.525 27.2878C121.641 26.7972 120.883 26.1109 120.311 25.2824L121.54 24.1865C122.02 24.9077 122.695 25.4811 123.489 25.8413C124.289 26.2111 125.163 26.3983 126.046 26.3892C126.779 26.3989 127.506 26.2609 128.183 25.9837C128.861 25.7249 129.439 25.262 129.836 24.6602C130.234 24.0585 130.43 23.3484 130.398 22.6303V20.4385C129.915 21.1945 129.239 21.8107 128.438 22.2248C127.638 22.6721 126.733 22.9027 125.814 22.8933ZM126.467 21.1728C126.914 21.1755 127.358 21.0937 127.774 20.9317C128.171 20.7721 128.544 20.5581 128.881 20.2961C129.225 20.0447 129.528 19.7415 129.778 19.3974C130.006 19.0887 130.172 18.7388 130.265 18.3673V14.7837C130.043 14.2183 129.712 13.7009 129.29 13.2604C128.885 12.8296 128.401 12.4799 127.862 12.2303C127.352 11.9843 126.791 11.8569 126.223 11.8577C125.619 11.8447 125.02 11.9842 124.485 12.2632C123.986 12.542 123.546 12.9142 123.19 13.3591C122.837 13.8208 122.56 14.3349 122.37 14.8824C122.182 15.4295 122.085 16.0031 122.082 16.581C122.076 17.1859 122.193 17.7859 122.426 18.3454C122.645 18.8866 122.956 19.387 123.345 19.8248C123.727 20.248 124.195 20.5877 124.718 20.8221C125.267 21.0673 125.865 21.1871 126.467 21.1728Z" fill="white"/>
<path d="M46.503 8.41632C46.8995 7.19113 46.8246 5.86414 46.2927 4.6903C45.7719 3.55654 44.9043 2.61346 43.8125 1.99441C42.6128 1.30331 41.2477 0.943753 39.8597 0.953311H39.6825C38.6159 0.957958 37.556 1.12049 36.538 1.4355C35.45 1.77046 34.4114 2.24578 33.4488 2.8492C32.5058 3.4438 31.6647 4.18372 30.9576 5.04098C30.2844 5.8066 29.7792 6.70221 29.4739 7.67112L29.186 8.65742H30.2268H32.3416H32.9506L33.1167 8.0766C33.3562 7.39415 33.7723 6.78579 34.3235 6.31221C35.0097 5.69153 35.8054 5.20117 36.6709 4.86564C37.4761 4.54233 38.3375 4.37851 39.2064 4.38345H39.3171C40.0586 4.37796 40.7883 4.56703 41.4319 4.93139C41.9785 5.2418 42.4183 5.7076 42.6942 6.26838C42.9506 6.80377 42.9864 7.41694 42.7938 7.97797C42.6176 8.60507 42.3068 9.18717 41.8826 9.68456C41.4584 10.182 40.9308 10.5829 40.3358 10.8602C38.8833 11.5512 37.2853 11.8893 35.6744 11.8465H34.7997L34.6336 12.4273L34.1796 13.9944L33.9028 14.9807H34.9325C36.1323 14.9705 37.3244 15.1709 38.4535 15.5725C39.2201 15.8116 39.8732 16.3178 40.2915 16.9971C40.4609 17.3513 40.557 17.7354 40.5741 18.1269C40.5912 18.5184 40.529 18.9093 40.3911 19.2766C40.1281 20.1182 39.6427 20.8749 38.985 21.4684C38.2195 22.1656 37.3346 22.7222 36.3719 23.1122C35.4875 23.478 34.5401 23.6715 33.5817 23.6821H33.4599C32.5016 23.6983 31.5554 23.4679 30.714 23.0136C30.1281 22.6959 29.6794 22.1777 29.4517 21.556C29.2299 20.8756 29.2299 20.1433 29.4517 19.4629L29.7396 18.4766H28.7099H26.584H25.9751L25.809 19.0684C25.401 20.3555 25.4204 21.7382 25.8643 23.0136C26.3343 24.2595 27.2265 25.3053 28.3888 25.9725C29.7714 26.7237 31.3294 27.1016 32.9063 27.0684H33.1056C34.668 27.0543 36.2117 26.7301 37.6452 26.115C39.1447 25.5023 40.5154 24.6177 41.6866 23.5067C42.7921 22.4713 43.605 21.168 44.045 19.7259C44.3606 18.7724 44.4441 17.7585 44.2886 16.767C44.0955 15.817 43.6304 14.9421 42.9488 14.2465C42.6721 13.9504 42.3598 13.6891 42.0188 13.4684C42.7918 13.0997 43.5076 12.6237 44.1446 12.0547C45.2604 11.0851 46.0777 9.82424 46.503 8.41632Z" fill="white"/>
<path d="M24.6247 0C24.0379 0.778082 14.3054 11.3096 13.4639 12.2411C12.7995 11.0247 10.8951 7.67123 9.96504 5.91781L5.29254 10.9589C5.64685 11.6164 6.76515 13.611 7.60664 15.1123L0 25.3041L2.66842 28C2.66842 28 12.8881 16.9534 13.94 15.8356C14.6154 17.0521 16.5087 20.4055 17.4277 22.1479C18.4132 21.0521 20.4837 18.8603 22.1002 17.0959C21.757 16.4932 20.5944 14.3562 19.8083 12.9315C21.2698 10.926 26.2302 4.30685 27.4038 2.49863C27.1824 2.25753 25.3555 0.536986 24.6247 0ZM7.662 19.1014C7.87238 18.8055 9.63287 16.4384 10.4522 15.3425C10.1311 14.7178 9.03497 12.789 8.23776 11.3425L9.46678 10.0055L11.9248 14.4658L7.662 19.1014ZM17.0402 12.8986C17.3059 13.4466 18.3578 15.2986 19.1439 16.7342L17.926 18.0493L15.4569 13.6658L19.7086 8.99726C19.4872 9.29315 17.7599 11.6493 16.9406 12.7452L17.0402 12.8986Z" fill="white"/>
<path d="M138.337 23.0136V17.5342H139.035V23.0136H138.337Z" fill="white"/>
<path d="M141.049 18.8602V23.0136H140.352V17.5342H140.938L144.26 21.7862V17.5999H145.046V23.0794H144.404L141.049 18.8602Z" fill="white"/>
<path d="M145.954 20.2635C145.958 19.9309 146.018 19.6013 146.131 19.2881C146.25 18.9698 146.423 18.6735 146.641 18.4114C146.869 18.147 147.152 17.9341 147.471 17.7868C147.815 17.6189 148.195 17.5362 148.578 17.5457C149.023 17.5376 149.461 17.6555 149.84 17.8854C150.176 18.0914 150.445 18.3879 150.616 18.7402L150.073 19.0909C149.976 18.8792 149.832 18.6919 149.652 18.5429C149.493 18.4123 149.308 18.3154 149.11 18.258C148.927 18.2022 148.737 18.1727 148.545 18.1703C148.264 18.1656 147.987 18.2296 147.737 18.3566C147.504 18.4772 147.301 18.6453 147.139 18.8498C146.98 19.0529 146.86 19.2832 146.785 19.5292C146.705 19.7775 146.664 20.0361 146.663 20.2963C146.661 20.573 146.71 20.8477 146.807 21.1073C146.899 21.358 147.034 21.5915 147.205 21.7977C147.373 21.9903 147.576 22.1502 147.803 22.2689C148.039 22.3886 148.302 22.4488 148.567 22.4443C148.767 22.4426 148.965 22.4093 149.154 22.3457C149.36 22.2784 149.551 22.1744 149.719 22.0388C149.9 21.8911 150.044 21.7035 150.139 21.4909L150.715 21.7977C150.605 22.0685 150.426 22.3064 150.195 22.4881C149.96 22.6807 149.689 22.8259 149.398 22.9155C149.12 23.0141 148.828 23.0659 148.534 23.0689C148.176 23.0696 147.824 22.987 147.504 22.8278C147.192 22.6657 146.914 22.4463 146.685 22.1813C146.453 21.9166 146.273 21.612 146.153 21.2826C146.023 20.9581 145.956 20.6125 145.954 20.2635Z" fill="white"/>
<path d="M151.436 23.014V22.1592H152.001V23.014H151.436Z" fill="white"/>
</g>
<defs>
<clipPath id="clip0_90_6824">
<rect width="152" height="28" fill="white"/>
</clipPath>
</defs>
</svg>
