<svg width="50" height="50" viewBox="0 0 50 50" fill="none" xmlns="http://www.w3.org/2000/svg">
<rect width="50" height="50" rx="4" fill="#048372" fill-opacity="0.3"/>
<path d="M31.9123 19.7125C31.8248 19.7 31.7373 19.7 31.6498 19.7125C29.7123 19.65 28.1748 18.0625 28.1748 16.1125C28.1748 14.125 29.7873 12.5 31.7873 12.5C33.7748 12.5 35.3998 14.1125 35.3998 16.1125C35.3873 18.0625 33.8498 19.65 31.9123 19.7125Z" fill="#048372"/>
<path d="M35.9875 28.3755C34.5875 29.313 32.625 29.663 30.8125 29.4255C31.2875 28.4005 31.5375 27.263 31.55 26.063C31.55 24.813 31.275 23.6255 30.75 22.588C32.6 22.338 34.5625 22.688 35.975 23.6255C37.95 24.9255 37.95 27.063 35.9875 28.3755Z" fill="#048372"/>
<path d="M18.0502 19.7125C18.1377 19.7 18.2252 19.7 18.3127 19.7125C20.2502 19.65 21.7877 18.0625 21.7877 16.1125C21.7877 14.1125 20.1752 12.5 18.1752 12.5C16.1877 12.5 14.5752 14.1125 14.5752 16.1125C14.5752 18.0625 16.1127 19.65 18.0502 19.7125Z" fill="#048372"/>
<path d="M18.1879 26.0632C18.1879 27.2757 18.4504 28.4257 18.9254 29.4632C17.1629 29.6507 15.3254 29.2757 13.9754 28.3882C12.0004 27.0757 12.0004 24.9382 13.9754 23.6257C15.3129 22.7257 17.2004 22.3632 18.9754 22.5632C18.4629 23.6132 18.1879 24.8007 18.1879 26.0632Z" fill="#048372"/>
<path d="M25.15 29.8375C25.05 29.825 24.9375 29.825 24.825 29.8375C22.525 29.7625 20.6875 27.875 20.6875 25.55C20.7 23.175 22.6125 21.25 25 21.25C27.375 21.25 29.3 23.175 29.3 25.55C29.2875 27.875 27.4625 29.7625 25.15 29.8375Z" fill="#048372"/>
<path d="M21.0875 32.4258C19.2 33.6883 19.2 35.7633 21.0875 37.0133C23.2375 38.4508 26.7625 38.4508 28.9125 37.0133C30.8 35.7508 30.8 33.6758 28.9125 32.4258C26.775 30.9883 23.25 30.9883 21.0875 32.4258Z" fill="#048372"/>
</svg>
