<svg width="50" height="50" viewBox="0 0 50 50" fill="none" xmlns="http://www.w3.org/2000/svg">
<rect width="50" height="50" rx="25" fill="#048372" fill-opacity="0.2"/>
<path d="M32.2623 16.8625V17.7875L27.8373 15.225C26.1623 14.2625 23.8248 14.2625 22.1623 15.225L17.7373 17.8V16.8625C17.7373 14.05 19.2748 12.5 22.0873 12.5H27.9123C30.7248 12.5 32.2623 14.05 32.2623 16.8625Z" fill="#048372"/>
<path d="M32.3 19.9625L32.125 19.875L30.425 18.9L26.9 16.8625C25.825 16.2375 24.175 16.2375 23.1 16.8625L19.575 18.8875L17.875 19.8875L17.65 20C15.4625 21.475 15.3125 21.75 15.3125 24.1125V29.7625C15.3125 32.125 15.4625 32.4 17.7 33.9125L23.1 37.0251C23.6375 37.35 24.3125 37.4875 25 37.4875C25.675 37.4875 26.3625 37.3376 26.9 37.0251L32.35 33.875C34.55 32.4 34.6875 32.1375 34.6875 29.7625V24.1125C34.6875 21.75 34.5375 21.475 32.3 19.9625ZM28.4875 26.875L27.725 27.8125C27.6 27.95 27.5125 28.2125 27.525 28.4L27.6 29.6C27.65 30.3375 27.125 30.7126 26.4375 30.4501L25.325 30C25.15 29.9375 24.8625 29.9375 24.6875 30L23.575 30.4375C22.8875 30.7125 22.3625 30.325 22.4125 29.5875L22.4875 28.3875C22.5 28.2 22.4125 27.9375 22.2875 27.8L21.5125 26.875C21.0375 26.3125 21.25 25.6875 21.9625 25.5L23.125 25.2C23.3125 25.15 23.525 24.975 23.625 24.825L24.275 23.825C24.675 23.2 25.3125 23.2 25.725 23.825L26.375 24.825C26.475 24.9875 26.7 25.15 26.875 25.2L28.0375 25.5C28.75 25.6875 28.9625 26.3125 28.4875 26.875Z" fill="#048372"/>
</svg>
