<svg width="50" height="50" viewBox="0 0 50 50" fill="none" xmlns="http://www.w3.org/2000/svg">
<rect width="50" height="50" rx="4" fill="#AECF5A" fill-opacity="0.3"/>
<path d="M36.5625 25.9375C37.0875 25.9375 37.5 25.5125 37.5 25C37.5 24.475 37.0875 24.0625 36.5625 24.0625H35V21.3125H36.5625C37.0875 21.3125 37.5 20.9 37.5 20.375C37.5 19.8625 37.0875 19.4375 36.5625 19.4375H34.7125C34.1125 17.45 32.55 15.8875 30.5625 15.2875V13.4375C30.5625 12.925 30.1375 12.5 29.625 12.5C29.1125 12.5 28.6875 12.925 28.6875 13.4375V15H25.9375V13.4375C25.9375 12.925 25.5125 12.5 25 12.5C24.4875 12.5 24.0625 12.925 24.0625 13.4375V15H21.325V13.4375C21.325 12.925 20.9 12.5 20.3875 12.5C19.8625 12.5 19.45 12.925 19.45 13.4375V15.2875C17.45 15.8875 15.8875 17.45 15.2875 19.4375H13.4375C12.925 19.4375 12.5 19.8625 12.5 20.375C12.5 20.9 12.925 21.3125 13.4375 21.3125H15V24.0625H13.4375C12.925 24.0625 12.5 24.475 12.5 25C12.5 25.5125 12.925 25.9375 13.4375 25.9375H15V28.6875H13.4375C12.925 28.6875 12.5 29.1 12.5 29.625C12.5 30.1375 12.925 30.5625 13.4375 30.5625H15.2875C15.875 32.55 17.45 34.1125 19.45 34.7125V36.5625C19.45 37.075 19.8625 37.5 20.3875 37.5C20.9 37.5 21.325 37.075 21.325 36.5625V35H24.075V36.5625C24.075 37.075 24.4875 37.5 25.0125 37.5C25.525 37.5 25.95 37.075 25.95 36.5625V35H28.6875V36.5625C28.6875 37.075 29.1125 37.5 29.625 37.5C30.1375 37.5 30.5625 37.075 30.5625 36.5625V34.7125C32.55 34.1125 34.1125 32.55 34.7125 30.5625H36.5625C37.0875 30.5625 37.5 30.1375 37.5 29.625C37.5 29.1 37.0875 28.6875 36.5625 28.6875H35V25.9375H36.5625ZM31.575 27.825C31.575 29.8875 29.8875 31.575 27.825 31.575H22.175C20.1125 31.575 18.425 29.8875 18.425 27.825V22.175C18.425 20.1125 20.1125 18.425 22.175 18.425H27.825C29.8875 18.425 31.575 20.1125 31.575 22.175V27.825Z" fill="#AECF5A"/>
<path d="M22.525 30.3133H27.4875C29.05 30.3133 30.325 29.0508 30.325 27.4758V22.5133C30.325 20.9508 29.0625 19.6758 27.4875 19.6758H22.525C20.9625 19.6758 19.6875 20.9383 19.6875 22.5133V27.4758C19.6875 29.0508 20.95 30.3133 22.525 30.3133Z" fill="#AECF5A"/>
</svg>
