<svg width="16" height="17" viewBox="0 0 16 17" fill="none" xmlns="http://www.w3.org/2000/svg">
<path d="M7.99992 9.64992C6.57992 9.64992 5.41992 8.49658 5.41992 7.06992C5.41992 5.64325 6.57992 4.49658 7.99992 4.49658C9.41992 4.49658 10.5799 5.64992 10.5799 7.07658C10.5799 8.50325 9.41992 9.64992 7.99992 9.64992ZM7.99992 5.49658C7.13326 5.49658 6.41992 6.20325 6.41992 7.07658C6.41992 7.94992 7.12659 8.65658 7.99992 8.65658C8.87326 8.65658 9.57992 7.94992 9.57992 7.07658C9.57992 6.20325 8.86659 5.49658 7.99992 5.49658Z" fill="#42474E"/>
<path d="M7.99914 15.3766C7.01247 15.3766 6.01914 15.0033 5.24581 14.2633C3.27914 12.37 1.10581 9.34995 1.92581 5.75662C2.66581 2.49662 5.51247 1.03662 7.99914 1.03662C7.99914 1.03662 7.99914 1.03662 8.00581 1.03662C10.4925 1.03662 13.3391 2.49662 14.0791 5.76329C14.8925 9.35662 12.7191 12.37 10.7525 14.2633C9.97914 15.0033 8.98581 15.3766 7.99914 15.3766ZM7.99914 2.03662C6.05914 2.03662 3.56581 3.06995 2.90581 5.97662C2.18581 9.11662 4.15914 11.8233 5.94581 13.5366C7.09914 14.65 8.90581 14.65 10.0591 13.5366C11.8391 11.8233 13.8125 9.11662 13.1058 5.97662C12.4391 3.06995 9.93914 2.03662 7.99914 2.03662Z" fill="#42474E"/>
</svg>
