<svg width="48" height="49" viewBox="0 0 48 49" fill="none" xmlns="http://www.w3.org/2000/svg">
<g clip-path="url(#clip0_175_2513)">
<path d="M24.0199 32.5475C21.6899 32.5475 19.3599 32.1775 17.1499 31.4375C16.3099 31.1475 15.6699 30.5575 15.3899 29.7875C15.0999 29.0175 15.1999 28.1675 15.6599 27.4075L16.8099 25.4975C17.0499 25.0975 17.2699 24.2975 17.2699 23.8275V20.9375C17.2699 17.2175 20.2999 14.1875 24.0199 14.1875C27.7399 14.1875 30.7699 17.2175 30.7699 20.9375V23.8275C30.7699 24.2875 30.9899 25.0975 31.2299 25.5075L32.3699 27.4075C32.7999 28.1275 32.8799 28.9975 32.5899 29.7875C32.2999 30.5775 31.6699 31.1775 30.8799 31.4375C28.6799 32.1775 26.3499 32.5475 24.0199 32.5475ZM24.0199 15.6875C21.1299 15.6875 18.7699 18.0375 18.7699 20.9375V23.8275C18.7699 24.5575 18.4699 25.6375 18.0999 26.2675L16.9499 28.1775C16.7299 28.5475 16.6699 28.9375 16.7999 29.2675C16.9199 29.6075 17.2199 29.8675 17.6299 30.0075C21.8099 31.4075 26.2399 31.4075 30.4199 30.0075C30.7799 29.8875 31.0599 29.6175 31.1899 29.2575C31.3199 28.8975 31.2899 28.5075 31.0899 28.1775L29.9399 26.2675C29.5599 25.6175 29.2699 24.5475 29.2699 23.8175V20.9375C29.2699 18.0375 26.9199 15.6875 24.0199 15.6875Z" fill="#42474E"/>
<path d="M25.8806 15.9578C25.8106 15.9578 25.7406 15.9478 25.6706 15.9278C25.3806 15.8478 25.1006 15.7878 24.8306 15.7478C23.9806 15.6378 23.1606 15.6978 22.3906 15.9278C22.1106 16.0178 21.8106 15.9278 21.6206 15.7178C21.4306 15.5078 21.3706 15.2078 21.4806 14.9378C21.8906 13.8878 22.8906 13.1978 24.0306 13.1978C25.1706 13.1978 26.1706 13.8778 26.5806 14.9378C26.6806 15.2078 26.6306 15.5078 26.4406 15.7178C26.2906 15.8778 26.0806 15.9578 25.8806 15.9578Z" fill="#42474E"/>
<path d="M24.0195 34.8276C23.0295 34.8276 22.0695 34.4276 21.3695 33.7276C20.6695 33.0276 20.2695 32.0676 20.2695 31.0776H21.7695C21.7695 31.6676 22.0095 32.2476 22.4295 32.6676C22.8495 33.0876 23.4295 33.3276 24.0195 33.3276C25.2595 33.3276 26.2695 32.3176 26.2695 31.0776H27.7695C27.7695 33.1476 26.0895 34.8276 24.0195 34.8276Z" fill="#42474E"/>
</g>
<defs>
<clipPath id="clip0_175_2513">
<rect x="4" y="4.01758" width="40" height="40" rx="20" fill="white"/>
</clipPath>
</defs>
</svg>
