<svg width="18" height="18" viewBox="0 0 18 18" fill="none" xmlns="http://www.w3.org/2000/svg">
<path d="M13.1478 5.8275C13.0953 5.82 13.0428 5.82 12.9903 5.8275C11.8278 5.79 10.9053 4.8375 10.9053 3.6675C10.9053 2.475 11.8728 1.5 13.0728 1.5C14.2653 1.5 15.2403 2.4675 15.2403 3.6675C15.2328 4.8375 14.3103 5.79 13.1478 5.8275Z" fill="#AECF5A"/>
<path d="M15.5927 11.0253C14.7527 11.5878 13.5752 11.7978 12.4877 11.6553C12.7727 11.0403 12.9227 10.3578 12.9302 9.6378C12.9302 8.8878 12.7652 8.1753 12.4502 7.5528C13.5602 7.4028 14.7377 7.6128 15.5852 8.1753C16.7702 8.9553 16.7702 10.2378 15.5927 11.0253Z" fill="#AECF5A"/>
<path d="M4.83012 5.8275C4.88262 5.82 4.93512 5.82 4.98762 5.8275C6.15012 5.79 7.07262 4.8375 7.07262 3.6675C7.07262 2.4675 6.10512 1.5 4.90512 1.5C3.71262 1.5 2.74512 2.4675 2.74512 3.6675C2.74512 4.8375 3.66762 5.79 4.83012 5.8275Z" fill="#AECF5A"/>
<path d="M4.91234 9.63794C4.91234 10.3654 5.06984 11.0554 5.35484 11.6779C4.29734 11.7904 3.19484 11.5654 2.38484 11.0329C1.19984 10.2454 1.19984 8.96294 2.38484 8.17544C3.18734 7.63544 4.31984 7.41794 5.38484 7.53794C5.07734 8.16794 4.91234 8.88044 4.91234 9.63794Z" fill="#AECF5A"/>
<path d="M9.08961 11.9025C9.02961 11.895 8.96211 11.895 8.89461 11.9025C7.51461 11.8575 6.41211 10.725 6.41211 9.33C6.41961 7.905 7.56711 6.75 8.99961 6.75C10.4246 6.75 11.5796 7.905 11.5796 9.33C11.5721 10.725 10.4771 11.8575 9.08961 11.9025Z" fill="#AECF5A"/>
<path d="M6.65211 13.4555C5.51961 14.213 5.51961 15.458 6.65211 16.208C7.94211 17.0705 10.0571 17.0705 11.3471 16.208C12.4796 15.4505 12.4796 14.2055 11.3471 13.4555C10.0646 12.593 7.94961 12.593 6.65211 13.4555Z" fill="#AECF5A"/>
</svg>
