<svg width="50" height="50" viewBox="0 0 50 50" fill="none" xmlns="http://www.w3.org/2000/svg">
<rect width="50" height="50" rx="25" fill="#E12222" fill-opacity="0.2"/>
<path d="M25 12.5C21.725 12.5 19.0625 15.1625 19.0625 18.4375C19.0625 21.65 21.575 24.25 24.85 24.3625C24.95 24.35 25.05 24.35 25.125 24.3625C25.15 24.3625 25.1625 24.3625 25.1875 24.3625C25.2 24.3625 25.2 24.3625 25.2125 24.3625C28.4125 24.25 30.925 21.65 30.9375 18.4375C30.9375 15.1625 28.275 12.5 25 12.5Z" fill="#E12222"/>
<path d="M31.3502 27.7008C27.8627 25.3758 22.1752 25.3758 18.6627 27.7008C17.0752 28.7508 16.2002 30.1883 16.2002 31.7258C16.2002 33.2633 17.0752 34.6883 18.6502 35.7383C20.4002 36.9133 22.7002 37.5008 25.0002 37.5008C27.3002 37.5008 29.6002 36.9133 31.3502 35.7383C32.9252 34.6758 33.8002 33.2508 33.8002 31.7008C33.7877 30.1758 32.9252 28.7383 31.3502 27.7008ZM27.9127 30.7008L24.7627 33.8508C24.6127 34.0008 24.4127 34.0758 24.2127 34.0758C24.0127 34.0758 23.8127 33.9883 23.6627 33.8508L22.0877 32.2758C21.7877 31.9758 21.7877 31.4758 22.0877 31.1758C22.3877 30.8758 22.8877 30.8758 23.1877 31.1758L24.2127 32.2008L26.8127 29.6008C27.1127 29.3008 27.6127 29.3008 27.9127 29.6008C28.2252 29.9008 28.2252 30.4008 27.9127 30.7008Z" fill="#E12222"/>
</svg>
