<svg width="50" height="50" viewBox="0 0 50 50" fill="none" xmlns="http://www.w3.org/2000/svg">
<rect width="50" height="50" rx="4" fill="#E12222" fill-opacity="0.2"/>
<path d="M37.5 13.4375H12.5C11.9875 13.4375 11.5625 13.0125 11.5625 12.5C11.5625 11.9875 11.9875 11.5625 12.5 11.5625H37.5C38.0125 11.5625 38.4375 11.9875 38.4375 12.5C38.4375 13.0125 38.0125 13.4375 37.5 13.4375Z" fill="#E12222"/>
<path d="M30.8373 37.925C30.6748 38.25 30.3373 38.4375 29.9998 38.4375C29.8623 38.4375 29.7123 38.4 29.5873 38.3375L24.9998 36.05L20.4123 38.3375C20.2873 38.4 20.1373 38.4375 19.9998 38.4375C19.6623 38.4375 19.3248 38.25 19.1623 37.925C18.9248 37.45 19.1123 36.8875 19.5873 36.6625L24.0623 34.425V31.25H25.9373V34.425L30.4123 36.6625C30.8873 36.8875 31.0748 37.45 30.8373 37.925Z" fill="#E12222"/>
<path d="M13.75 12.5V27.625C13.75 30 15 31.25 17.375 31.25H32.625C35 31.25 36.25 30 36.25 27.625V12.5H13.75ZM31.225 20.725L27.2875 24.0125C26.925 24.3125 26.4625 24.4375 26.025 24.3625C25.575 24.2875 25.1875 24.0125 24.95 23.6125L23.6375 21.425L19.975 24.475C19.8 24.625 19.5875 24.6875 19.375 24.6875C19.1125 24.6875 18.8375 24.575 18.65 24.35C18.3125 23.95 18.375 23.3625 18.775 23.025L22.7125 19.7375C23.075 19.4375 23.5375 19.3125 23.975 19.3875C24.425 19.4625 24.8125 19.7375 25.05 20.1375L26.3625 22.325L30.025 19.275C30.425 18.9375 31.0125 19 31.35 19.4C31.675 19.8 31.625 20.3875 31.225 20.725Z" fill="#E12222"/>
</svg>
