<svg width="20" height="20" viewBox="0 0 20 20" fill="none" xmlns="http://www.w3.org/2000/svg">
<path d="M14.167 2.91602H5.83366C3.33366 2.91602 1.66699 4.16602 1.66699 7.08268V12.916C1.66699 15.8327 3.33366 17.0827 5.83366 17.0827H14.167C16.667 17.0827 18.3337 15.8327 18.3337 12.916V7.08268C18.3337 4.16602 16.667 2.91602 14.167 2.91602ZM14.5587 7.99102L11.9503 10.0743C11.4003 10.516 10.7003 10.7327 10.0003 10.7327C9.30033 10.7327 8.59199 10.516 8.05033 10.0743L5.44199 7.99102C5.17533 7.77435 5.13366 7.37435 5.34199 7.10768C5.55866 6.84102 5.95033 6.79102 6.21699 7.00768L8.82533 9.09102C9.45866 9.59935 10.5337 9.59935 11.167 9.09102L13.7753 7.00768C14.042 6.79102 14.442 6.83268 14.6503 7.10768C14.867 7.37435 14.8253 7.77435 14.5587 7.99102Z" fill="white"/>
</svg>
