<svg width="47" height="28" viewBox="0 0 47 28" fill="none" xmlns="http://www.w3.org/2000/svg">
<path d="M24.6247 0C24.0379 0.778082 14.3054 11.3096 13.4639 12.2411C12.7995 11.0247 10.8951 7.67123 9.96504 5.91781L5.29254 10.9589C5.64685 11.6164 6.76515 13.611 7.60664 15.1123L0 25.3041L2.66842 28C2.66842 28 12.8881 16.9534 13.94 15.8356C14.6154 17.0521 16.5087 20.4055 17.4277 22.1479C18.4132 21.0521 20.4837 18.8603 22.1002 17.0959C21.757 16.4932 20.5944 14.3562 19.8083 12.9315C21.2698 10.926 26.2302 4.30685 27.4038 2.49863C27.1824 2.25753 25.3555 0.536986 24.6247 0ZM7.662 19.1014C7.87238 18.8055 9.63287 16.4384 10.4522 15.3425C10.1311 14.7178 9.03497 12.789 8.23776 11.3425L9.46678 10.0055L11.9248 14.4658L7.662 19.1014ZM17.0402 12.8986C17.3059 13.4466 18.3578 15.2986 19.1439 16.7342L17.926 18.0493L15.4569 13.6658L19.7086 8.99726C19.4872 9.29315 17.7599 11.6493 16.9406 12.7452L17.0402 12.8986Z" fill="white"/>
<path d="M46.503 8.41632C46.8995 7.19113 46.8246 5.86414 46.2927 4.6903C45.7719 3.55654 44.9043 2.61346 43.8125 1.99441C42.6128 1.30331 41.2477 0.943753 39.8597 0.953311H39.6825C38.6159 0.957958 37.556 1.12049 36.538 1.4355C35.45 1.77046 34.4114 2.24578 33.4488 2.8492C32.5058 3.4438 31.6647 4.18372 30.9576 5.04098C30.2844 5.8066 29.7792 6.70221 29.4739 7.67112L29.186 8.65742H30.2268H32.3416H32.9506L33.1167 8.0766C33.3562 7.39415 33.7723 6.78579 34.3235 6.31221C35.0097 5.69153 35.8054 5.20117 36.6709 4.86564C37.4761 4.54233 38.3375 4.37851 39.2064 4.38345H39.3171C40.0586 4.37796 40.7883 4.56703 41.4319 4.93139C41.9785 5.2418 42.4183 5.7076 42.6942 6.26838C42.9506 6.80377 42.9864 7.41694 42.7938 7.97797C42.6176 8.60507 42.3068 9.18717 41.8826 9.68456C41.4584 10.182 40.9308 10.5829 40.3358 10.8602C38.8833 11.5512 37.2853 11.8893 35.6744 11.8465H34.7997L34.6336 12.4273L34.1796 13.9944L33.9028 14.9807H34.9325C36.1323 14.9705 37.3244 15.1709 38.4535 15.5725C39.2201 15.8116 39.8732 16.3178 40.2915 16.9971C40.4609 17.3513 40.557 17.7354 40.5741 18.1269C40.5912 18.5184 40.529 18.9093 40.3911 19.2766C40.1281 20.1182 39.6427 20.8749 38.985 21.4684C38.2195 22.1656 37.3346 22.7222 36.3719 23.1122C35.4875 23.478 34.5401 23.6715 33.5817 23.6821H33.4599C32.5016 23.6983 31.5554 23.4679 30.714 23.0136C30.1281 22.6959 29.6794 22.1777 29.4517 21.556C29.2299 20.8756 29.2299 20.1433 29.4517 19.4629L29.7396 18.4766H28.7099H26.584H25.9751L25.809 19.0684C25.401 20.3555 25.4204 21.7382 25.8643 23.0136C26.3343 24.2595 27.2265 25.3053 28.3888 25.9725C29.7714 26.7237 31.3294 27.1016 32.9063 27.0684H33.1056C34.668 27.0543 36.2117 26.7301 37.6452 26.115C39.1447 25.5023 40.5154 24.6177 41.6866 23.5067C42.7921 22.4713 43.605 21.168 44.045 19.7259C44.3606 18.7724 44.4441 17.7585 44.2886 16.767C44.0955 15.817 43.6304 14.9421 42.9488 14.2465C42.6721 13.9504 42.3598 13.6891 42.0188 13.4684C42.7918 13.0997 43.5076 12.6237 44.1446 12.0547C45.2604 11.0851 46.0777 9.82424 46.503 8.41632Z" fill="white"/>
</svg>
